<svg width="95" height="43" viewBox="0 0 95 43" fill="none" xmlns="http://www.w3.org/2000/svg">
<rect y="3" width="93" height="40" rx="20" fill="#21262B"/>
<rect x="3.5" y="0.5" width="91" height="39" rx="19.5" fill="#F7F7F7"/>
<rect x="3.5" y="0.5" width="91" height="39" rx="19.5" stroke="#21262B"/>
<path d="M23.4208 26L26.3648 14.8H30.0448L32.9888 26H30.8128L30.2048 23.536H26.2048L25.5968 26H23.4208ZM26.7008 21.584H29.7088L28.3488 16.128H28.0608L26.7008 21.584ZM34.0094 26V24.144H35.4814V16.656H34.0094V14.8H39.7694C40.4521 14.8 41.0441 14.9173 41.5454 15.152C42.0574 15.376 42.4521 15.7013 42.7294 16.128C43.0174 16.544 43.1614 17.0453 43.1614 17.632V17.792C43.1614 18.304 43.0654 18.7253 42.8734 19.056C42.6814 19.376 42.4521 19.6267 42.1854 19.808C41.9294 19.9787 41.6841 20.1013 41.4494 20.176V20.464C41.6841 20.528 41.9401 20.6507 42.2174 20.832C42.4948 21.0027 42.7294 21.2533 42.9214 21.584C43.1241 21.9147 43.2254 22.3467 43.2254 22.88V23.04C43.2254 23.6587 43.0814 24.192 42.7934 24.64C42.5054 25.0773 42.1054 25.4133 41.5934 25.648C41.0921 25.8827 40.5054 26 39.8334 26H34.0094ZM37.5934 24.08H39.5774C40.0361 24.08 40.4041 23.968 40.6814 23.744C40.9694 23.52 41.1134 23.2 41.1134 22.784V22.624C41.1134 22.208 40.9748 21.888 40.6974 21.664C40.4201 21.44 40.0468 21.328 39.5774 21.328H37.5934V24.08ZM37.5934 19.408H39.5454C39.9828 19.408 40.3401 19.296 40.6174 19.072C40.9054 18.848 41.0494 18.5387 41.0494 18.144V17.984C41.0494 17.5787 40.9108 17.2693 40.6334 17.056C40.3561 16.832 39.9934 16.72 39.5454 16.72H37.5934V19.408ZM49.3064 26.224C47.8984 26.224 46.7784 25.84 45.9464 25.072C45.1144 24.2933 44.6984 23.184 44.6984 21.744V19.056C44.6984 17.616 45.1144 16.512 45.9464 15.744C46.7784 14.9653 47.8984 14.576 49.3064 14.576C50.7144 14.576 51.8344 14.9653 52.6664 15.744C53.4984 16.512 53.9144 17.616 53.9144 19.056V21.744C53.9144 23.184 53.4984 24.2933 52.6664 25.072C51.8344 25.84 50.7144 26.224 49.3064 26.224ZM49.3064 24.336C50.0958 24.336 50.7091 24.1067 51.1464 23.648C51.5838 23.1893 51.8024 22.576 51.8024 21.808V18.992C51.8024 18.224 51.5838 17.6107 51.1464 17.152C50.7091 16.6933 50.0958 16.464 49.3064 16.464C48.5278 16.464 47.9144 16.6933 47.4664 17.152C47.0291 17.6107 46.8104 18.224 46.8104 18.992V21.808C46.8104 22.576 47.0291 23.1893 47.4664 23.648C47.9144 24.1067 48.5278 24.336 49.3064 24.336ZM60.0869 26.224C59.1696 26.224 58.3803 26.0587 57.7189 25.728C57.0683 25.3867 56.5669 24.9067 56.2149 24.288C55.8736 23.6587 55.7029 22.9173 55.7029 22.064V14.8H57.8149V22.128C57.8149 22.8107 58.0069 23.3493 58.3909 23.744C58.7856 24.1387 59.3509 24.336 60.0869 24.336C60.8229 24.336 61.3829 24.1387 61.7669 23.744C62.1616 23.3493 62.3589 22.8107 62.3589 22.128V14.8H64.4709V22.064C64.4709 22.9173 64.2949 23.6587 63.9429 24.288C63.6016 24.9067 63.1003 25.3867 62.4389 25.728C61.7883 26.0587 61.0043 26.224 60.0869 26.224ZM69.1089 26V16.72H65.8449V14.8H74.4849V16.72H71.2209V26H69.1089Z" fill="#21262B"/>
</svg>
