<svg width="94" height="42" viewBox="0 0 94 42" fill="none" xmlns="http://www.w3.org/2000/svg">
<rect y="2" width="93" height="40" rx="20" fill="#21262B"/>
<rect x="2.5" y="0.5" width="91" height="39" rx="19.5" fill="#F7F7F7"/>
<rect x="2.5" y="0.5" width="91" height="39" rx="19.5" stroke="#21262B"/>
<path d="M22.4208 26L25.3648 14.8H29.0448L31.9888 26H29.8128L29.2048 23.536H25.2048L24.5968 26H22.4208ZM25.7008 21.584H28.7088L27.3488 16.128H27.0608L25.7008 21.584ZM33.0094 26V24.144H34.4814V16.656H33.0094V14.8H38.7694C39.4521 14.8 40.0441 14.9173 40.5454 15.152C41.0574 15.376 41.4521 15.7013 41.7294 16.128C42.0174 16.544 42.1614 17.0453 42.1614 17.632V17.792C42.1614 18.304 42.0654 18.7253 41.8734 19.056C41.6814 19.376 41.4521 19.6267 41.1854 19.808C40.9294 19.9787 40.6841 20.1013 40.4494 20.176V20.464C40.6841 20.528 40.9401 20.6507 41.2174 20.832C41.4948 21.0027 41.7294 21.2533 41.9214 21.584C42.1241 21.9147 42.2254 22.3467 42.2254 22.88V23.04C42.2254 23.6587 42.0814 24.192 41.7934 24.64C41.5054 25.0773 41.1054 25.4133 40.5934 25.648C40.0921 25.8827 39.5054 26 38.8334 26H33.0094ZM36.5934 24.08H38.5774C39.0361 24.08 39.4041 23.968 39.6814 23.744C39.9694 23.52 40.1134 23.2 40.1134 22.784V22.624C40.1134 22.208 39.9748 21.888 39.6974 21.664C39.4201 21.44 39.0468 21.328 38.5774 21.328H36.5934V24.08ZM36.5934 19.408H38.5454C38.9828 19.408 39.3401 19.296 39.6174 19.072C39.9054 18.848 40.0494 18.5387 40.0494 18.144V17.984C40.0494 17.5787 39.9108 17.2693 39.6334 17.056C39.3561 16.832 38.9934 16.72 38.5454 16.72H36.5934V19.408ZM48.3064 26.224C46.8984 26.224 45.7784 25.84 44.9464 25.072C44.1144 24.2933 43.6984 23.184 43.6984 21.744V19.056C43.6984 17.616 44.1144 16.512 44.9464 15.744C45.7784 14.9653 46.8984 14.576 48.3064 14.576C49.7144 14.576 50.8344 14.9653 51.6664 15.744C52.4984 16.512 52.9144 17.616 52.9144 19.056V21.744C52.9144 23.184 52.4984 24.2933 51.6664 25.072C50.8344 25.84 49.7144 26.224 48.3064 26.224ZM48.3064 24.336C49.0958 24.336 49.7091 24.1067 50.1464 23.648C50.5838 23.1893 50.8024 22.576 50.8024 21.808V18.992C50.8024 18.224 50.5838 17.6107 50.1464 17.152C49.7091 16.6933 49.0958 16.464 48.3064 16.464C47.5278 16.464 46.9144 16.6933 46.4664 17.152C46.0291 17.6107 45.8104 18.224 45.8104 18.992V21.808C45.8104 22.576 46.0291 23.1893 46.4664 23.648C46.9144 24.1067 47.5278 24.336 48.3064 24.336ZM59.0869 26.224C58.1696 26.224 57.3803 26.0587 56.7189 25.728C56.0683 25.3867 55.5669 24.9067 55.2149 24.288C54.8736 23.6587 54.7029 22.9173 54.7029 22.064V14.8H56.8149V22.128C56.8149 22.8107 57.0069 23.3493 57.3909 23.744C57.7856 24.1387 58.3509 24.336 59.0869 24.336C59.8229 24.336 60.3829 24.1387 60.7669 23.744C61.1616 23.3493 61.3589 22.8107 61.3589 22.128V14.8H63.4709V22.064C63.4709 22.9173 63.2949 23.6587 62.9429 24.288C62.6016 24.9067 62.1003 25.3867 61.4389 25.728C60.7883 26.0587 60.0043 26.224 59.0869 26.224ZM68.1089 26V16.72H64.8449V14.8H73.4849V16.72H70.2209V26H68.1089Z" fill="#21262B"/>
</svg>
