<svg width="83" height="42" viewBox="0 0 83 42" fill="none" xmlns="http://www.w3.org/2000/svg">
<rect x="2.5" y="0.5" width="80" height="39" rx="19.5" fill="#F7F7F7"/>
<rect x="2.5" y="0.5" width="80" height="39" rx="19.5" stroke="#21262B"/>
<path d="M23.0719 26V24.144H24.5439V16.656H23.0719V14.8H28.8319C29.5146 14.8 30.1066 14.9173 30.6079 15.152C31.1199 15.376 31.5146 15.7013 31.7919 16.128C32.0799 16.544 32.2239 17.0453 32.2239 17.632V17.792C32.2239 18.304 32.1279 18.7253 31.9359 19.056C31.7439 19.376 31.5146 19.6267 31.2479 19.808C30.9919 19.9787 30.7466 20.1013 30.5119 20.176V20.464C30.7466 20.528 31.0026 20.6507 31.2799 20.832C31.5573 21.0027 31.7919 21.2533 31.9839 21.584C32.1866 21.9147 32.2879 22.3467 32.2879 22.88V23.04C32.2879 23.6587 32.1439 24.192 31.8559 24.64C31.5679 25.0773 31.1679 25.4133 30.6559 25.648C30.1546 25.8827 29.5679 26 28.8959 26H23.0719ZM26.6559 24.08H28.6399C29.0986 24.08 29.4666 23.968 29.7439 23.744C30.0319 23.52 30.1759 23.2 30.1759 22.784V22.624C30.1759 22.208 30.0373 21.888 29.7599 21.664C29.4826 21.44 29.1093 21.328 28.6399 21.328H26.6559V24.08ZM26.6559 19.408H28.6079C29.0453 19.408 29.4026 19.296 29.6799 19.072C29.9679 18.848 30.1119 18.5387 30.1119 18.144V17.984C30.1119 17.5787 29.9733 17.2693 29.6959 17.056C29.4186 16.832 29.0559 16.72 28.6079 16.72H26.6559V19.408ZM34.0169 26V14.8H36.1289V24.08H41.2489V26H34.0169ZM46.6658 26.224C45.2578 26.224 44.1378 25.84 43.3058 25.072C42.4738 24.2933 42.0578 23.184 42.0578 21.744V19.056C42.0578 17.616 42.4738 16.512 43.3058 15.744C44.1378 14.9653 45.2578 14.576 46.6658 14.576C48.0738 14.576 49.1938 14.9653 50.0258 15.744C50.8578 16.512 51.2738 17.616 51.2738 19.056V21.744C51.2738 23.184 50.8578 24.2933 50.0258 25.072C49.1938 25.84 48.0738 26.224 46.6658 26.224ZM46.6658 24.336C47.4551 24.336 48.0685 24.1067 48.5058 23.648C48.9431 23.1893 49.1618 22.576 49.1618 21.808V18.992C49.1618 18.224 48.9431 17.6107 48.5058 17.152C48.0685 16.6933 47.4551 16.464 46.6658 16.464C45.8871 16.464 45.2738 16.6933 44.8258 17.152C44.3885 17.6107 44.1698 18.224 44.1698 18.992V21.808C44.1698 22.576 44.3885 23.1893 44.8258 23.648C45.2738 24.1067 45.8871 24.336 46.6658 24.336ZM56.9983 26.224C56.2303 26.224 55.5316 26.0533 54.9023 25.712C54.2836 25.36 53.7876 24.8533 53.4143 24.192C53.0516 23.52 52.8703 22.704 52.8703 21.744V19.056C52.8703 17.616 53.2756 16.512 54.0863 15.744C54.897 14.9653 55.9956 14.576 57.3823 14.576C58.7583 14.576 59.8196 14.944 60.5663 15.68C61.3236 16.4053 61.7023 17.392 61.7023 18.64V18.704H59.6223V18.576C59.6223 18.1813 59.537 17.824 59.3663 17.504C59.2063 17.184 58.961 16.9333 58.6303 16.752C58.2996 16.56 57.8836 16.464 57.3823 16.464C56.6356 16.464 56.049 16.6933 55.6223 17.152C55.1956 17.6107 54.9823 18.2347 54.9823 19.024V21.776C54.9823 22.5547 55.1956 23.184 55.6223 23.664C56.049 24.1333 56.6463 24.368 57.4143 24.368C58.1823 24.368 58.7423 24.1653 59.0943 23.76C59.4463 23.3547 59.6223 22.8427 59.6223 22.224V22.064H56.9663V20.272H61.7023V26H59.7503V24.928H59.4623C59.3876 25.1093 59.265 25.3013 59.0943 25.504C58.9343 25.7067 58.689 25.8773 58.3583 26.016C58.0276 26.1547 57.5743 26.224 56.9983 26.224Z" fill="#21262B"/>
</svg>
