<svg width="84" height="43" viewBox="0 0 84 43" fill="none" xmlns="http://www.w3.org/2000/svg">
<rect y="3" width="82" height="40" rx="20" fill="#21262B"/>
<rect x="3.5" y="0.5" width="80" height="39" rx="19.5" fill="#F7F7F7"/>
<rect x="3.5" y="0.5" width="80" height="39" rx="19.5" stroke="#21262B"/>
<path d="M24.0719 26V24.144H25.5439V16.656H24.0719V14.8H29.8319C30.5146 14.8 31.1066 14.9173 31.6079 15.152C32.1199 15.376 32.5146 15.7013 32.7919 16.128C33.0799 16.544 33.2239 17.0453 33.2239 17.632V17.792C33.2239 18.304 33.1279 18.7253 32.9359 19.056C32.7439 19.376 32.5146 19.6267 32.2479 19.808C31.9919 19.9787 31.7466 20.1013 31.5119 20.176V20.464C31.7466 20.528 32.0026 20.6507 32.2799 20.832C32.5573 21.0027 32.7919 21.2533 32.9839 21.584C33.1866 21.9147 33.2879 22.3467 33.2879 22.88V23.04C33.2879 23.6587 33.1439 24.192 32.8559 24.64C32.5679 25.0773 32.1679 25.4133 31.6559 25.648C31.1546 25.8827 30.5679 26 29.8959 26H24.0719ZM27.6559 24.08H29.6399C30.0986 24.08 30.4666 23.968 30.7439 23.744C31.0319 23.52 31.1759 23.2 31.1759 22.784V22.624C31.1759 22.208 31.0373 21.888 30.7599 21.664C30.4826 21.44 30.1093 21.328 29.6399 21.328H27.6559V24.08ZM27.6559 19.408H29.6079C30.0453 19.408 30.4026 19.296 30.6799 19.072C30.9679 18.848 31.1119 18.5387 31.1119 18.144V17.984C31.1119 17.5787 30.9733 17.2693 30.6959 17.056C30.4186 16.832 30.0559 16.72 29.6079 16.72H27.6559V19.408ZM35.0169 26V14.8H37.1289V24.08H42.2489V26H35.0169ZM47.6658 26.224C46.2578 26.224 45.1378 25.84 44.3058 25.072C43.4738 24.2933 43.0578 23.184 43.0578 21.744V19.056C43.0578 17.616 43.4738 16.512 44.3058 15.744C45.1378 14.9653 46.2578 14.576 47.6658 14.576C49.0738 14.576 50.1938 14.9653 51.0258 15.744C51.8578 16.512 52.2738 17.616 52.2738 19.056V21.744C52.2738 23.184 51.8578 24.2933 51.0258 25.072C50.1938 25.84 49.0738 26.224 47.6658 26.224ZM47.6658 24.336C48.4551 24.336 49.0685 24.1067 49.5058 23.648C49.9431 23.1893 50.1618 22.576 50.1618 21.808V18.992C50.1618 18.224 49.9431 17.6107 49.5058 17.152C49.0685 16.6933 48.4551 16.464 47.6658 16.464C46.8871 16.464 46.2738 16.6933 45.8258 17.152C45.3885 17.6107 45.1698 18.224 45.1698 18.992V21.808C45.1698 22.576 45.3885 23.1893 45.8258 23.648C46.2738 24.1067 46.8871 24.336 47.6658 24.336ZM57.9983 26.224C57.2303 26.224 56.5316 26.0533 55.9023 25.712C55.2836 25.36 54.7876 24.8533 54.4143 24.192C54.0516 23.52 53.8703 22.704 53.8703 21.744V19.056C53.8703 17.616 54.2756 16.512 55.0863 15.744C55.897 14.9653 56.9956 14.576 58.3823 14.576C59.7583 14.576 60.8196 14.944 61.5663 15.68C62.3236 16.4053 62.7023 17.392 62.7023 18.64V18.704H60.6223V18.576C60.6223 18.1813 60.537 17.824 60.3663 17.504C60.2063 17.184 59.961 16.9333 59.6303 16.752C59.2996 16.56 58.8836 16.464 58.3823 16.464C57.6356 16.464 57.049 16.6933 56.6223 17.152C56.1956 17.6107 55.9823 18.2347 55.9823 19.024V21.776C55.9823 22.5547 56.1956 23.184 56.6223 23.664C57.049 24.1333 57.6463 24.368 58.4143 24.368C59.1823 24.368 59.7423 24.1653 60.0943 23.76C60.4463 23.3547 60.6223 22.8427 60.6223 22.224V22.064H57.9663V20.272H62.7023V26H60.7503V24.928H60.4623C60.3876 25.1093 60.265 25.3013 60.0943 25.504C59.9343 25.7067 59.689 25.8773 59.3583 26.016C59.0276 26.1547 58.5743 26.224 57.9983 26.224Z" fill="#21262B"/>
</svg>
