<svg width="110" height="42" viewBox="0 0 110 42" fill="none" xmlns="http://www.w3.org/2000/svg">
<rect y="2" width="109" height="40" rx="20" fill="#21262B"/>
<rect x="2.5" y="0.5" width="107" height="39" rx="19.5" fill="#F7F7F7"/>
<rect x="2.5" y="0.5" width="107" height="39" rx="19.5" stroke="#21262B"/>
<path d="M27.562 26.224C26.1753 26.224 25.0767 25.84 24.266 25.072C23.4553 24.2933 23.05 23.184 23.05 21.744V19.056C23.05 17.616 23.4553 16.512 24.266 15.744C25.0767 14.9653 26.1753 14.576 27.562 14.576C28.938 14.576 29.9993 14.9547 30.746 15.712C31.5033 16.4587 31.882 17.488 31.882 18.8V18.896H29.802V18.736C29.802 18.0747 29.6153 17.5307 29.242 17.104C28.8793 16.6773 28.3193 16.464 27.562 16.464C26.8153 16.464 26.2287 16.6933 25.802 17.152C25.3753 17.6107 25.162 18.2347 25.162 19.024V21.776C25.162 22.5547 25.3753 23.1787 25.802 23.648C26.2287 24.1067 26.8153 24.336 27.562 24.336C28.3193 24.336 28.8793 24.1227 29.242 23.696C29.6153 23.2587 29.802 22.7147 29.802 22.064V21.776H31.882V22C31.882 23.312 31.5033 24.3467 30.746 25.104C29.9993 25.8507 28.938 26.224 27.562 26.224ZM32.7099 26L35.6539 14.8H39.3339L42.2779 26H40.1019L39.4939 23.536H35.4939L34.8859 26H32.7099ZM35.9899 21.584H38.9979L37.6379 16.128H37.3499L35.9899 21.584ZM45.1793 26V16.72H41.9153V14.8H50.5553V16.72H47.2913V26H45.1793ZM50.1943 26L53.1383 14.8H56.8183L59.7623 26H57.5863L56.9783 23.536H52.9783L52.3703 26H50.1943ZM53.4743 21.584H56.4823L55.1223 16.128H54.8343L53.4743 21.584ZM61.1029 26V14.8H63.2149V24.08H68.3349V26H61.1029ZM73.7518 26.224C72.3438 26.224 71.2238 25.84 70.3918 25.072C69.5598 24.2933 69.1438 23.184 69.1438 21.744V19.056C69.1438 17.616 69.5598 16.512 70.3918 15.744C71.2238 14.9653 72.3438 14.576 73.7518 14.576C75.1598 14.576 76.2798 14.9653 77.1118 15.744C77.9438 16.512 78.3598 17.616 78.3598 19.056V21.744C78.3598 23.184 77.9438 24.2933 77.1118 25.072C76.2798 25.84 75.1598 26.224 73.7518 26.224ZM73.7518 24.336C74.5411 24.336 75.1544 24.1067 75.5918 23.648C76.0291 23.1893 76.2478 22.576 76.2478 21.808V18.992C76.2478 18.224 76.0291 17.6107 75.5918 17.152C75.1544 16.6933 74.5411 16.464 73.7518 16.464C72.9731 16.464 72.3598 16.6933 71.9118 17.152C71.4744 17.6107 71.2558 18.224 71.2558 18.992V21.808C71.2558 22.576 71.4744 23.1893 71.9118 23.648C72.3598 24.1067 72.9731 24.336 73.7518 24.336ZM84.0843 26.224C83.3163 26.224 82.6176 26.0533 81.9883 25.712C81.3696 25.36 80.8736 24.8533 80.5003 24.192C80.1376 23.52 79.9563 22.704 79.9563 21.744V19.056C79.9563 17.616 80.3616 16.512 81.1723 15.744C81.9829 14.9653 83.0816 14.576 84.4683 14.576C85.8443 14.576 86.9056 14.944 87.6523 15.68C88.4096 16.4053 88.7883 17.392 88.7883 18.64V18.704H86.7083V18.576C86.7083 18.1813 86.6229 17.824 86.4523 17.504C86.2923 17.184 86.0469 16.9333 85.7163 16.752C85.3856 16.56 84.9696 16.464 84.4683 16.464C83.7216 16.464 83.1349 16.6933 82.7083 17.152C82.2816 17.6107 82.0683 18.2347 82.0683 19.024V21.776C82.0683 22.5547 82.2816 23.184 82.7083 23.664C83.1349 24.1333 83.7323 24.368 84.5003 24.368C85.2683 24.368 85.8283 24.1653 86.1803 23.76C86.5323 23.3547 86.7083 22.8427 86.7083 22.224V22.064H84.0523V20.272H88.7883V26H86.8363V24.928H86.5483C86.4736 25.1093 86.3509 25.3013 86.1803 25.504C86.0203 25.7067 85.7749 25.8773 85.4443 26.016C85.1136 26.1547 84.6603 26.224 84.0843 26.224Z" fill="#21262B"/>
</svg>
