<svg width="111" height="43" viewBox="0 0 111 43" fill="none" xmlns="http://www.w3.org/2000/svg">
<rect y="3" width="109" height="40" rx="20" fill="#21262B"/>
<rect x="3.5" y="0.5" width="107" height="39" rx="19.5" fill="#F7F7F7"/>
<rect x="3.5" y="0.5" width="107" height="39" rx="19.5" stroke="#21262B"/>
<path d="M28.562 26.224C27.1753 26.224 26.0767 25.84 25.266 25.072C24.4553 24.2933 24.05 23.184 24.05 21.744V19.056C24.05 17.616 24.4553 16.512 25.266 15.744C26.0767 14.9653 27.1753 14.576 28.562 14.576C29.938 14.576 30.9993 14.9547 31.746 15.712C32.5033 16.4587 32.882 17.488 32.882 18.8V18.896H30.802V18.736C30.802 18.0747 30.6153 17.5307 30.242 17.104C29.8793 16.6773 29.3193 16.464 28.562 16.464C27.8153 16.464 27.2287 16.6933 26.802 17.152C26.3753 17.6107 26.162 18.2347 26.162 19.024V21.776C26.162 22.5547 26.3753 23.1787 26.802 23.648C27.2287 24.1067 27.8153 24.336 28.562 24.336C29.3193 24.336 29.8793 24.1227 30.242 23.696C30.6153 23.2587 30.802 22.7147 30.802 22.064V21.776H32.882V22C32.882 23.312 32.5033 24.3467 31.746 25.104C30.9993 25.8507 29.938 26.224 28.562 26.224ZM33.7099 26L36.6539 14.8H40.3339L43.2779 26H41.1019L40.4939 23.536H36.4939L35.8859 26H33.7099ZM36.9899 21.584H39.9979L38.6379 16.128H38.3499L36.9899 21.584ZM46.1793 26V16.72H42.9153V14.8H51.5553V16.72H48.2913V26H46.1793ZM51.1943 26L54.1383 14.8H57.8183L60.7623 26H58.5863L57.9783 23.536H53.9783L53.3703 26H51.1943ZM54.4743 21.584H57.4823L56.1223 16.128H55.8343L54.4743 21.584ZM62.1029 26V14.8H64.2149V24.08H69.3349V26H62.1029ZM74.7518 26.224C73.3438 26.224 72.2238 25.84 71.3918 25.072C70.5598 24.2933 70.1438 23.184 70.1438 21.744V19.056C70.1438 17.616 70.5598 16.512 71.3918 15.744C72.2238 14.9653 73.3438 14.576 74.7518 14.576C76.1598 14.576 77.2798 14.9653 78.1118 15.744C78.9438 16.512 79.3598 17.616 79.3598 19.056V21.744C79.3598 23.184 78.9438 24.2933 78.1118 25.072C77.2798 25.84 76.1598 26.224 74.7518 26.224ZM74.7518 24.336C75.5411 24.336 76.1544 24.1067 76.5918 23.648C77.0291 23.1893 77.2478 22.576 77.2478 21.808V18.992C77.2478 18.224 77.0291 17.6107 76.5918 17.152C76.1544 16.6933 75.5411 16.464 74.7518 16.464C73.9731 16.464 73.3598 16.6933 72.9118 17.152C72.4744 17.6107 72.2558 18.224 72.2558 18.992V21.808C72.2558 22.576 72.4744 23.1893 72.9118 23.648C73.3598 24.1067 73.9731 24.336 74.7518 24.336ZM85.0843 26.224C84.3163 26.224 83.6176 26.0533 82.9883 25.712C82.3696 25.36 81.8736 24.8533 81.5003 24.192C81.1376 23.52 80.9563 22.704 80.9563 21.744V19.056C80.9563 17.616 81.3616 16.512 82.1723 15.744C82.9829 14.9653 84.0816 14.576 85.4683 14.576C86.8443 14.576 87.9056 14.944 88.6523 15.68C89.4096 16.4053 89.7883 17.392 89.7883 18.64V18.704H87.7083V18.576C87.7083 18.1813 87.6229 17.824 87.4523 17.504C87.2923 17.184 87.0469 16.9333 86.7163 16.752C86.3856 16.56 85.9696 16.464 85.4683 16.464C84.7216 16.464 84.1349 16.6933 83.7083 17.152C83.2816 17.6107 83.0683 18.2347 83.0683 19.024V21.776C83.0683 22.5547 83.2816 23.184 83.7083 23.664C84.1349 24.1333 84.7323 24.368 85.5003 24.368C86.2683 24.368 86.8283 24.1653 87.1803 23.76C87.5323 23.3547 87.7083 22.8427 87.7083 22.224V22.064H85.0523V20.272H89.7883V26H87.8363V24.928H87.5483C87.4736 25.1093 87.3509 25.3013 87.1803 25.504C87.0203 25.7067 86.7749 25.8773 86.4443 26.016C86.1136 26.1547 85.6603 26.224 85.0843 26.224Z" fill="#21262B"/>
</svg>
