<svg width="88" height="43" viewBox="0 0 88 43" fill="none" xmlns="http://www.w3.org/2000/svg">
<rect y="3" width="86" height="40" rx="20" fill="#21262B"/>
<rect x="3.5" y="0.5" width="84" height="39" rx="19.5" fill="#F7F7F7"/>
<rect x="3.5" y="0.5" width="84" height="39" rx="19.5" stroke="#21262B"/>
<path d="M24.4154 26V14.8H26.5274V19.424H30.6874V14.8H32.7994V26H30.6874V21.344H26.5274V26H24.4154ZM39.2674 26.224C37.8594 26.224 36.7394 25.84 35.9074 25.072C35.0754 24.2933 34.6594 23.184 34.6594 21.744V19.056C34.6594 17.616 35.0754 16.512 35.9074 15.744C36.7394 14.9653 37.8594 14.576 39.2674 14.576C40.6754 14.576 41.7954 14.9653 42.6274 15.744C43.4594 16.512 43.8754 17.616 43.8754 19.056V21.744C43.8754 23.184 43.4594 24.2933 42.6274 25.072C41.7954 25.84 40.6754 26.224 39.2674 26.224ZM39.2674 24.336C40.0567 24.336 40.67 24.1067 41.1074 23.648C41.5447 23.1893 41.7634 22.576 41.7634 21.808V18.992C41.7634 18.224 41.5447 17.6107 41.1074 17.152C40.67 16.6933 40.0567 16.464 39.2674 16.464C38.4887 16.464 37.8754 16.6933 37.4274 17.152C36.99 17.6107 36.7714 18.224 36.7714 18.992V21.808C36.7714 22.576 36.99 23.1893 37.4274 23.648C37.8754 24.1067 38.4887 24.336 39.2674 24.336ZM45.7279 26V14.8H49.6479L51.5839 24.56H51.8719L53.8079 14.8H57.7279V26H55.6799V16.352H55.3919L53.4719 26H49.9839L48.0639 16.352H47.7759V26H45.7279ZM59.8372 26V14.8H67.0373V16.72H61.9493V19.392H66.5893V21.312H61.9493V24.08H67.1333V26H59.8372Z" fill="#21262B"/>
</svg>
