<svg width="135" height="50" viewBox="0 0 135 50" fill="none" xmlns="http://www.w3.org/2000/svg">
<rect y="3.48837" width="132.568" height="46.5116" rx="23.2558" fill="#21262B"/>
<rect x="4.14868" y="0.5" width="130.351" height="45.5116" rx="22.7558" fill="#F7F7F7"/>
<rect x="4.14868" y="0.5" width="130.351" height="45.5116" rx="22.7558" stroke="#21262B"/>
<path d="M24.2033 29.2558V18.0558H28.9073C29.6006 18.0558 30.2086 18.1785 30.7313 18.4238C31.2646 18.6585 31.6753 18.9998 31.9633 19.4478C32.2619 19.8958 32.4113 20.4291 32.4113 21.0478V21.2238C32.4113 21.9278 32.2406 22.4931 31.8993 22.9198C31.5686 23.3358 31.1633 23.6291 30.6833 23.7998V24.0558C31.0886 24.0771 31.4139 24.2158 31.6593 24.4718C31.9046 24.7171 32.0273 25.0745 32.0273 25.5438V29.2558H30.2833V25.7838C30.2833 25.4958 30.2086 25.2665 30.0593 25.0958C29.9099 24.9251 29.6699 24.8398 29.3393 24.8398H25.9313V29.2558H24.2033ZM25.9313 23.2718H28.7153C29.3339 23.2718 29.8139 23.1171 30.1553 22.8078C30.4966 22.4878 30.6673 22.0558 30.6673 21.5118V21.3838C30.6673 20.8398 30.4966 20.4131 30.1553 20.1038C29.8246 19.7838 29.3446 19.6238 28.7153 19.6238H25.9313V23.2718ZM37.9767 29.4798C37.1767 29.4798 36.478 29.3145 35.8807 28.9838C35.2833 28.6425 34.814 28.1678 34.4727 27.5598C34.142 26.9411 33.9767 26.2265 33.9767 25.4158V25.2238C33.9767 24.4025 34.142 23.6878 34.4727 23.0798C34.8033 22.4611 35.262 21.9865 35.8487 21.6558C36.446 21.3145 37.134 21.1438 37.9127 21.1438C38.67 21.1438 39.3313 21.3145 39.8967 21.6558C40.4727 21.9865 40.9207 22.4505 41.2407 23.0478C41.5607 23.6451 41.7207 24.3438 41.7207 25.1438V25.7678H35.6567C35.678 26.4611 35.9073 27.0158 36.3447 27.4318C36.7927 27.8371 37.3473 28.0398 38.0087 28.0398C38.6273 28.0398 39.0913 27.9011 39.4007 27.6238C39.7207 27.3465 39.966 27.0265 40.1367 26.6638L41.4967 27.3678C41.3473 27.6665 41.1287 27.9811 40.8407 28.3118C40.5633 28.6425 40.1953 28.9198 39.7367 29.1438C39.278 29.3678 38.6913 29.4798 37.9767 29.4798ZM35.6727 24.5038H40.0407C39.998 23.9065 39.7847 23.4425 39.4007 23.1118C39.0167 22.7705 38.5153 22.5998 37.8967 22.5998C37.278 22.5998 36.7713 22.7705 36.3767 23.1118C35.9927 23.4425 35.758 23.9065 35.6727 24.5038ZM46.1524 29.4798C45.5871 29.4798 45.0804 29.3838 44.6324 29.1918C44.1951 28.9998 43.8431 28.7171 43.5764 28.3438C43.3204 27.9705 43.1924 27.5171 43.1924 26.9838C43.1924 26.4398 43.3204 25.9918 43.5764 25.6398C43.8431 25.2771 44.2004 25.0051 44.6484 24.8238C45.1071 24.6425 45.6244 24.5518 46.2004 24.5518H48.6004V24.0398C48.6004 23.5811 48.4617 23.2131 48.1844 22.9358C47.9071 22.6585 47.4804 22.5198 46.9044 22.5198C46.3391 22.5198 45.9071 22.6531 45.6084 22.9198C45.3097 23.1865 45.1124 23.5331 45.0164 23.9598L43.4804 23.4638C43.6084 23.0371 43.8111 22.6531 44.0884 22.3118C44.3764 21.9598 44.7551 21.6771 45.2244 21.4638C45.6937 21.2505 46.2591 21.1438 46.9204 21.1438C47.9444 21.1438 48.7497 21.4051 49.3364 21.9278C49.9231 22.4505 50.2164 23.1918 50.2164 24.1518V27.3998C50.2164 27.7198 50.3657 27.8798 50.6644 27.8798H51.3364V29.2558H50.1044C49.7311 29.2558 49.4271 29.1598 49.1924 28.9678C48.9577 28.7758 48.8404 28.5145 48.8404 28.1838V28.1358H48.6004C48.5151 28.2958 48.3871 28.4825 48.2164 28.6958C48.0457 28.9091 47.7951 29.0958 47.4644 29.2558C47.1337 29.4051 46.6964 29.4798 46.1524 29.4798ZM46.3924 28.1198C47.0537 28.1198 47.5871 27.9331 47.9924 27.5598C48.3977 27.1758 48.6004 26.6531 48.6004 25.9918V25.8318H46.2964C45.8591 25.8318 45.5071 25.9278 45.2404 26.1198C44.9737 26.3011 44.8404 26.5731 44.8404 26.9358C44.8404 27.2985 44.9791 27.5865 45.2564 27.7998C45.5337 28.0131 45.9124 28.1198 46.3924 28.1198ZM56.0153 29.4798C55.3646 29.4798 54.7619 29.3198 54.2073 28.9998C53.6526 28.6798 53.2046 28.2211 52.8633 27.6238C52.5326 27.0158 52.3673 26.2851 52.3673 25.4318V25.1918C52.3673 24.3491 52.5326 23.6238 52.8633 23.0158C53.1939 22.4078 53.6366 21.9438 54.1913 21.6238C54.7459 21.3038 55.3539 21.1438 56.0153 21.1438C56.5273 21.1438 56.9539 21.2078 57.2953 21.3358C57.6473 21.4638 57.9353 21.6291 58.1593 21.8318C58.3833 22.0238 58.5539 22.2265 58.6713 22.4398H58.9273V18.0558H60.5753V29.2558H58.9593V28.1358H58.7033C58.5006 28.4771 58.1913 28.7865 57.7753 29.0638C57.3699 29.3411 56.7833 29.4798 56.0153 29.4798ZM56.4793 28.0398C57.1939 28.0398 57.7806 27.8105 58.2393 27.3518C58.7086 26.8931 58.9433 26.2371 58.9433 25.3838V25.2398C58.9433 24.3971 58.7139 23.7465 58.2553 23.2878C57.7966 22.8291 57.2046 22.5998 56.4793 22.5998C55.7753 22.5998 55.1886 22.8291 54.7193 23.2878C54.2606 23.7465 54.0313 24.3971 54.0313 25.2398V25.3838C54.0313 26.2371 54.2606 26.8931 54.7193 27.3518C55.1886 27.8105 55.7753 28.0398 56.4793 28.0398ZM69.5274 29.4798C68.9621 29.4798 68.4554 29.3838 68.0074 29.1918C67.5701 28.9998 67.2181 28.7171 66.9514 28.3438C66.6954 27.9705 66.5674 27.5171 66.5674 26.9838C66.5674 26.4398 66.6954 25.9918 66.9514 25.6398C67.2181 25.2771 67.5754 25.0051 68.0234 24.8238C68.4821 24.6425 68.9994 24.5518 69.5754 24.5518H71.9754V24.0398C71.9754 23.5811 71.8367 23.2131 71.5594 22.9358C71.2821 22.6585 70.8554 22.5198 70.2794 22.5198C69.7141 22.5198 69.2821 22.6531 68.9834 22.9198C68.6847 23.1865 68.4874 23.5331 68.3914 23.9598L66.8554 23.4638C66.9834 23.0371 67.1861 22.6531 67.4634 22.3118C67.7514 21.9598 68.1301 21.6771 68.5994 21.4638C69.0687 21.2505 69.6341 21.1438 70.2954 21.1438C71.3194 21.1438 72.1247 21.4051 72.7114 21.9278C73.2981 22.4505 73.5914 23.1918 73.5914 24.1518V27.3998C73.5914 27.7198 73.7407 27.8798 74.0394 27.8798H74.7114V29.2558H73.4794C73.1061 29.2558 72.8021 29.1598 72.5674 28.9678C72.3327 28.7758 72.2154 28.5145 72.2154 28.1838V28.1358H71.9754C71.8901 28.2958 71.7621 28.4825 71.5914 28.6958C71.4207 28.9091 71.1701 29.0958 70.8394 29.2558C70.5087 29.4051 70.0714 29.4798 69.5274 29.4798ZM69.7674 28.1198C70.4287 28.1198 70.9621 27.9331 71.3674 27.5598C71.7727 27.1758 71.9754 26.6531 71.9754 25.9918V25.8318H69.6714C69.2341 25.8318 68.8821 25.9278 68.6154 26.1198C68.3487 26.3011 68.2154 26.5731 68.2154 26.9358C68.2154 27.2985 68.3541 27.5865 68.6314 27.7998C68.9087 28.0131 69.2874 28.1198 69.7674 28.1198ZM76.3138 29.2558V21.3678H77.9298V22.2958H78.1858C78.3138 21.9651 78.5164 21.7251 78.7938 21.5758C79.0818 21.4158 79.4338 21.3358 79.8498 21.3358H80.7938V22.8238H79.7858C79.2524 22.8238 78.8151 22.9731 78.4738 23.2718C78.1324 23.5598 77.9618 24.0078 77.9618 24.6158V29.2558H76.3138ZM85.4613 29.2558C84.9813 29.2558 84.5973 29.1118 84.3093 28.8238C84.0319 28.5358 83.8933 28.1518 83.8933 27.6718V22.7598H81.7173V21.3678H83.8933V18.7598H85.5413V21.3678H87.8933V22.7598H85.5413V27.3838C85.5413 27.7038 85.6906 27.8638 85.9893 27.8638H87.6373V29.2558H85.4613ZM89.8294 29.2558V21.3678H91.4774V29.2558H89.8294ZM90.6614 20.2958C90.3414 20.2958 90.0694 20.1945 89.8454 19.9918C89.6321 19.7785 89.5254 19.5065 89.5254 19.1758C89.5254 18.8451 89.6321 18.5785 89.8454 18.3758C90.0694 18.1625 90.3414 18.0558 90.6614 18.0558C90.9921 18.0558 91.2641 18.1625 91.4774 18.3758C91.6907 18.5785 91.7974 18.8451 91.7974 19.1758C91.7974 19.5065 91.6907 19.7785 91.4774 19.9918C91.2641 20.1945 90.9921 20.2958 90.6614 20.2958ZM97.5872 29.4798C96.8298 29.4798 96.1418 29.3198 95.5232 28.9998C94.9152 28.6798 94.4298 28.2158 94.0672 27.6078C93.7152 26.9998 93.5392 26.2691 93.5392 25.4158V25.2078C93.5392 24.3545 93.7152 23.6291 94.0672 23.0318C94.4298 22.4238 94.9152 21.9598 95.5232 21.6398C96.1418 21.3091 96.8298 21.1438 97.5872 21.1438C98.3445 21.1438 98.9898 21.2825 99.5232 21.5598C100.056 21.8371 100.483 22.2051 100.803 22.6638C101.134 23.1225 101.347 23.6291 101.443 24.1838L99.8432 24.5198C99.7898 24.1678 99.6778 23.8478 99.5072 23.5598C99.3365 23.2718 99.0965 23.0425 98.7872 22.8718C98.4778 22.7011 98.0885 22.6158 97.6192 22.6158C97.1605 22.6158 96.7445 22.7225 96.3712 22.9358C96.0085 23.1385 95.7205 23.4371 95.5072 23.8318C95.2938 24.2158 95.1872 24.6851 95.1872 25.2398V25.3838C95.1872 25.9385 95.2938 26.4131 95.5072 26.8078C95.7205 27.2025 96.0085 27.5011 96.3712 27.7038C96.7445 27.9065 97.1605 28.0078 97.6192 28.0078C98.3125 28.0078 98.8405 27.8318 99.2032 27.4798C99.5658 27.1171 99.7952 26.6585 99.8912 26.1038L101.491 26.4718C101.363 27.0158 101.134 27.5171 100.803 27.9758C100.483 28.4345 100.056 28.8025 99.5232 29.0798C98.9898 29.3465 98.3445 29.4798 97.5872 29.4798ZM103.392 29.2558V18.0558H105.04V29.2558H103.392ZM111.102 29.4798C110.302 29.4798 109.603 29.3145 109.006 28.9838C108.408 28.6425 107.939 28.1678 107.598 27.5598C107.267 26.9411 107.102 26.2265 107.102 25.4158V25.2238C107.102 24.4025 107.267 23.6878 107.598 23.0798C107.928 22.4611 108.387 21.9865 108.974 21.6558C109.571 21.3145 110.259 21.1438 111.038 21.1438C111.795 21.1438 112.456 21.3145 113.022 21.6558C113.598 21.9865 114.046 22.4505 114.366 23.0478C114.686 23.6451 114.846 24.3438 114.846 25.1438V25.7678H108.782C108.803 26.4611 109.032 27.0158 109.47 27.4318C109.918 27.8371 110.472 28.0398 111.134 28.0398C111.752 28.0398 112.216 27.9011 112.526 27.6238C112.846 27.3465 113.091 27.0265 113.262 26.6638L114.622 27.3678C114.472 27.6665 114.254 27.9811 113.966 28.3118C113.688 28.6425 113.32 28.9198 112.862 29.1438C112.403 29.3678 111.816 29.4798 111.102 29.4798ZM108.798 24.5038H113.166C113.123 23.9065 112.91 23.4425 112.526 23.1118C112.142 22.7705 111.64 22.5998 111.022 22.5998C110.403 22.5998 109.896 22.7705 109.502 23.1118C109.118 23.4425 108.883 23.9065 108.798 24.5038Z" fill="#21262B"/>
</svg>
