<svg width="25" height="24" viewBox="0 0 25 24" fill="none" xmlns="http://www.w3.org/2000/svg">
<path d="M21.5 6.5C21.5 8.15685 20.1569 9.5 18.5 9.5C16.8431 9.5 15.5 8.15685 15.5 6.5C15.5 4.84315 16.8431 3.5 18.5 3.5C20.1569 3.5 21.5 4.84315 21.5 6.5Z" fill="#F7F7F7" stroke="#F7F7F7" stroke-width="1.5"/>
<path d="M9.5 12C9.5 13.6569 8.15685 15 6.5 15C4.84315 15 3.5 13.6569 3.5 12C3.5 10.3431 4.84315 9 6.5 9C8.15685 9 9.5 10.3431 9.5 12Z" fill="#F7F7F7" stroke="#F7F7F7" stroke-width="1.5"/>
<path d="M21.5 17.5C21.5 19.1569 20.1569 20.5 18.5 20.5C16.8431 20.5 15.5 19.1569 15.5 17.5C15.5 15.8431 16.8431 14.5 18.5 14.5C20.1569 14.5 21.5 15.8431 21.5 17.5Z" fill="#F7F7F7"/>
<path d="M9.22852 10.7495L15.7285 7.75M9.22852 13.25L15.7285 16.2495" stroke="#F7F7F7" stroke-width="1.5"/>
</svg>
