<svg xmlns="http://www.w3.org/2000/svg" width="168" height="40" fill="none" viewBox="0 0 168 40"><rect width="167" height="40" x=".112" fill="#21262b" rx="20"/><path fill="#f7f7f7" d="M19.506 26V14.8h7.056v1.568h-5.328v3.216h4.88v1.568h-4.88v3.28h5.408V26zm8.314 0 3.008-3.984-2.944-3.904h1.936l2.064 2.832h.256l2.064-2.832h1.952l-2.96 3.904L36.204 26h-1.968l-2.096-2.896h-.256L29.788 26zm10.156 3.2V18.112h1.616v1.136h.256q.305-.528.912-.944.624-.416 1.776-.416a3.5 3.5 0 0 1 1.808.48q.832.48 1.328 1.392.512.896.512 2.176v.24q0 1.28-.496 2.192a3.5 3.5 0 0 1-1.328 1.376q-.832.48-1.824.48-.768 0-1.296-.192t-.848-.48a3 3 0 0 1-.512-.624h-.256V29.2zm4.08-4.416q1.088 0 1.776-.688t.688-1.968v-.144q0-1.264-.704-1.952-.688-.688-1.76-.688-1.055 0-1.76.688-.688.689-.688 1.952v.144q0 1.28.688 1.968.705.688 1.76.688M48.226 26V14.8h1.648V26zm7.79.224q-1.185 0-2.112-.48a3.66 3.66 0 0 1-1.44-1.408q-.528-.912-.528-2.16v-.24q0-1.248.528-2.144a3.66 3.66 0 0 1 1.44-1.408q.927-.495 2.112-.496 1.184 0 2.112.496.928.495 1.456 1.408.528.896.528 2.144v.24q0 1.248-.528 2.16a3.63 3.63 0 0 1-1.456 1.408q-.929.48-2.112.48m0-1.472q1.088 0 1.76-.688.688-.705.688-1.936v-.144q0-1.231-.672-1.92-.672-.704-1.776-.704-1.073 0-1.76.704-.672.689-.672 1.92v.144q0 1.232.672 1.936.687.688 1.76.688M62.164 26v-7.888h1.615v.928h.256q.193-.495.609-.72.431-.24 1.055-.24h.945v1.488h-1.009q-.8 0-1.312.448-.51.432-.511 1.344V26zm9.522.224q-1.2 0-2.096-.496a3.7 3.7 0 0 1-1.408-1.424q-.495-.928-.496-2.144v-.192q0-1.232.496-2.144.496-.928 1.376-1.424.895-.512 2.064-.512 1.135 0 1.984.512.864.496 1.344 1.392t.48 2.096v.624h-6.064q.031 1.04.688 1.664.671.608 1.664.608.927 0 1.392-.416.48-.416.736-.96l1.36.704q-.225.448-.656.944-.417.495-1.104.832-.689.336-1.76.336m-2.304-4.976h4.368q-.064-.896-.64-1.392-.576-.512-1.504-.512-.929 0-1.52.512-.576.496-.704 1.392m15.774 4.976q-1.137 0-2.064-.48a3.65 3.65 0 0 1-1.456-1.392q-.528-.912-.528-2.192v-.208q0-1.28.528-2.176a3.65 3.65 0 0 1 1.456-1.392 4.3 4.3 0 0 1 2.064-.496q1.135 0 1.936.416.8.415 1.28 1.104.496.688.64 1.52l-1.6.336a2.6 2.6 0 0 0-.336-.96 1.86 1.86 0 0 0-.72-.688q-.465-.256-1.168-.256-.689 0-1.248.32a2.2 2.2 0 0 0-.864.896q-.32.576-.32 1.408v.144q0 .833.32 1.424.32.592.864.896.56.304 1.248.304 1.04 0 1.584-.528.543-.544.688-1.376l1.6.368a4.2 4.2 0 0 1-.688 1.504q-.48.688-1.28 1.104-.8.4-1.936.4m8.252 0a3.8 3.8 0 0 1-1.52-.288 2.5 2.5 0 0 1-1.056-.848q-.384-.56-.384-1.36 0-.816.384-1.344a2.43 2.43 0 0 1 1.072-.816 4.2 4.2 0 0 1 1.552-.272h2.4v-.512q0-.688-.416-1.104t-1.28-.416q-.847 0-1.296.4a1.9 1.9 0 0 0-.592 1.04l-1.536-.496q.192-.64.608-1.152a3.1 3.1 0 0 1 1.136-.848q.705-.32 1.696-.32 1.537 0 2.416.784.88.784.88 2.224v3.248q0 .48.448.48h.672V26H97.36q-.56 0-.912-.288t-.352-.784v-.048h-.24q-.127.24-.384.56-.254.32-.752.56-.496.224-1.312.224m.24-1.36q.993 0 1.6-.56.609-.576.608-1.568v-.16h-2.304q-.655 0-1.056.288-.4.271-.4.816.001.544.416.864.417.32 1.136.32M101.072 26v-6.496h-2.208v-1.392h2.208v-1.728q0-.72.432-1.152t1.152-.432h2.032v1.392h-1.504q-.464 0-.464.48v1.44h2.272v1.392h-2.272V26zm8.895.224q-1.2 0-2.096-.496a3.7 3.7 0 0 1-1.408-1.424q-.496-.928-.496-2.144v-.192q0-1.232.496-2.144a3.47 3.47 0 0 1 1.376-1.424q.895-.512 2.064-.512 1.136 0 1.984.512.864.496 1.344 1.392t.48 2.096v.624h-6.064q.032 1.04.688 1.664.672.608 1.664.608.928 0 1.392-.416.48-.416.736-.96l1.36.704a4.6 4.6 0 0 1-.656.944q-.415.495-1.104.832-.688.336-1.76.336m-2.304-4.976h4.368q-.064-.896-.64-1.392-.576-.512-1.504-.512t-1.52.512q-.576.496-.704 1.392m1.2-4.096 1.2-2.288h1.904l-1.616 2.288zm10.064 9.072q-1.504 0-2.496-.672-.993-.672-1.216-2.032l1.536-.368q.127.656.432 1.04.303.384.752.544.464.16.992.16.783 0 1.2-.304.432-.304.432-.784t-.4-.704-1.184-.368l-.544-.096a7 7 0 0 1-1.456-.416q-.656-.272-1.04-.752t-.384-1.232q0-1.12.832-1.728.831-.624 2.208-.624 1.327 0 2.176.608.864.592 1.12 1.616l-1.536.432q-.144-.72-.608-1.008-.465-.304-1.152-.304-.672 0-1.056.256a.77.77 0 0 0-.384.688q0 .48.368.704.384.224 1.024.336l.56.096q.847.145 1.552.4.703.256 1.104.736.416.48.416 1.28 0 1.185-.88 1.84-.88.656-2.368.656"/><path stroke="#f7f7f7" stroke-linecap="round" stroke-linejoin="round" stroke-width="1.5" d="M145.612 20h-13.5m8 6s6-4.419 6-6-6-6-6-6"/></svg>