<svg xmlns="http://www.w3.org/2000/svg" width="171" height="38" fill="none" viewBox="0 0 171 38"><rect width="168" height="37" x="1.612" y="1" fill="#21262b" rx="8"/><rect width="167" height="36" x="1.112" y=".5" fill="#f7f7f7" rx="7.5"/><rect width="167" height="36" x="1.112" y=".5" stroke="#21262b" rx="7.5"/><path fill="#21262b" d="M13.368 20.584h1.664l.528-2.624h-1.952l.192-1.04h1.952l.672-3.376h1.088l-.656 3.376h2.8l.672-3.376h1.104l-.672 3.376h1.696l-.208 1.04h-1.68l-.528 2.624h1.776l-.192 1.04h-1.776L19.176 25h-1.104l.672-3.376h-2.816L15.272 25h-1.104l.672-3.376h-1.68zm2.768 0h2.8l.528-2.624h-2.816zm7.565 2.24h1.056c0 .896.672 1.456 1.76 1.456 1.2 0 1.904-.512 1.904-1.344 0-.64-.32-1.008-1.232-1.232l-1.328-.336c-1.344-.336-2-1.04-2-2.096 0-1.36 1.136-2.224 2.8-2.224 1.632 0 2.688.896 2.736 2.336h-1.072c-.032-.896-.656-1.424-1.696-1.424-1.088 0-1.696.464-1.696 1.296 0 .592.416 1.008 1.264 1.216l1.328.336c1.344.336 1.952.96 1.952 2.08 0 1.392-1.184 2.304-2.944 2.304-1.744 0-2.832-.928-2.832-2.368m13.034-5.568h1.104V25h-.96l-.144-1.312c-.432.896-1.504 1.504-2.72 1.504-1.824 0-2.816-1.248-2.816-3.136V17.24h1.12v4.464c0 1.84.816 2.496 2.048 2.496 1.488 0 2.368-.992 2.368-2.832zm2.876 3.648c0-2.112 1.36-3.856 3.632-3.856 1.344 0 2.368.624 2.864 1.76l.112-1.552h.96v7.504c0 2.304-1.472 3.808-3.744 3.808-1.984 0-3.376-1.12-3.68-2.992h1.104c.24 1.248 1.2 1.984 2.592 1.984 1.584 0 2.64-1.072 2.64-2.688v-1.84c-.528 1.088-1.6 1.728-2.928 1.728-2.208 0-3.552-1.744-3.552-3.856m1.104-.016c0 1.584.976 2.88 2.608 2.88 1.68 0 2.672-1.216 2.672-2.88 0-1.648-.96-2.864-2.656-2.864-1.664 0-2.624 1.296-2.624 2.864m10.991 4.304c-1.648 0-2.624-.928-2.624-2.288 0-1.424 1.088-2.32 2.896-2.464l2.56-.208v-.256c0-1.52-.912-2-2.048-2-1.344 0-2.144.608-2.144 1.648h-1.008c0-1.568 1.28-2.576 3.184-2.576 1.792 0 3.104.896 3.104 2.944V25h-.928l-.144-1.36c-.48.976-1.536 1.552-2.848 1.552m.256-.896c1.632 0 2.576-1.136 2.576-2.816v-.416l-2.288.176c-1.456.128-2.048.768-2.048 1.632 0 .944.704 1.424 1.76 1.424m9.928-7.136v.992h-.608c-1.424 0-2.336.96-2.336 2.432V25h-1.104v-7.744h1.04l.08 1.2c.304-.832 1.12-1.376 2.208-1.376.24 0 .448.016.72.08m.605 4.128v-.992h4.64v.992zm5.639-4.032h1.184v-1.504c0-1.744.96-2.416 2.144-2.416.272 0 .592.016.848.064v.944h-.656c-.976 0-1.232.496-1.232 1.408v1.504h1.824v.928h-1.824V25h-1.104v-6.816h-1.184zm9.662-.096v.992h-.608c-1.424 0-2.336.96-2.336 2.432V25h-1.104v-7.744h1.04l.08 1.2c.304-.832 1.12-1.376 2.208-1.376.24 0 .448.016.72.08m4.419 8.032c-2.272 0-3.792-1.632-3.792-4.064 0-2.416 1.504-4.08 3.712-4.08 2.096 0 3.52 1.488 3.52 3.68v.544h-6.16c.08 1.888 1.072 2.976 2.736 2.976 1.264 0 2.08-.544 2.368-1.568h1.056c-.416 1.632-1.616 2.512-3.44 2.512m-.08-7.2c-1.456 0-2.416.96-2.608 2.48h5.024c0-1.488-.96-2.48-2.416-2.48m8.533 7.2c-2.272 0-3.792-1.632-3.792-4.064 0-2.416 1.504-4.08 3.712-4.08 2.096 0 3.52 1.488 3.52 3.68v.544h-6.16c.08 1.888 1.072 2.976 2.736 2.976 1.264 0 2.08-.544 2.368-1.568h1.056c-.416 1.632-1.616 2.512-3.44 2.512m-.08-7.2c-1.456 0-2.416.96-2.608 2.48h5.024c0-1.488-.96-2.48-2.416-2.48m12.762 7.2c-2.256 0-3.584-1.728-3.584-4.048 0-2.336 1.328-4.096 3.632-4.096 1.28 0 2.304.56 2.848 1.68v-5.392h1.104V25h-.96l-.112-1.584c-.544 1.2-1.632 1.776-2.928 1.776m.192-1.008c1.696 0 2.688-1.28 2.688-3.072 0-1.776-.992-3.072-2.688-3.072-1.68 0-2.656 1.296-2.656 3.072 0 1.792.976 3.072 2.656 3.072m9.36 1.008c-2.272 0-3.792-1.632-3.792-4.064 0-2.416 1.504-4.08 3.712-4.08 2.096 0 3.52 1.488 3.52 3.68v.544h-6.16c.08 1.888 1.072 2.976 2.736 2.976 1.264 0 2.08-.544 2.368-1.568h1.056c-.416 1.632-1.616 2.512-3.44 2.512m-.08-7.2c-1.456 0-2.416.96-2.608 2.48h5.024c0-1.488-.96-2.48-2.416-2.48m4.629 4.832h1.056c0 .896.672 1.456 1.76 1.456 1.2 0 1.904-.512 1.904-1.344 0-.64-.32-1.008-1.232-1.232l-1.328-.336c-1.344-.336-2-1.04-2-2.096 0-1.36 1.136-2.224 2.8-2.224 1.632 0 2.688.896 2.736 2.336h-1.072c-.032-.896-.656-1.424-1.696-1.424-1.088 0-1.696.464-1.696 1.296 0 .592.416 1.008 1.264 1.216l1.328.336c1.344.336 1.952.96 1.952 2.08 0 1.392-1.184 2.304-2.944 2.304-1.744 0-2.832-.928-2.832-2.368m6.938 0h1.056c0 .896.672 1.456 1.76 1.456 1.2 0 1.904-.512 1.904-1.344 0-.64-.32-1.008-1.232-1.232l-1.328-.336c-1.344-.336-2-1.04-2-2.096 0-1.36 1.136-2.224 2.8-2.224 1.632 0 2.688.896 2.736 2.336h-1.072c-.032-.896-.656-1.424-1.696-1.424-1.088 0-1.696.464-1.696 1.296 0 .592.416 1.008 1.264 1.216l1.328.336c1.344.336 1.952.96 1.952 2.08 0 1.392-1.184 2.304-2.944 2.304-1.744 0-2.832-.928-2.832-2.368m10.841 2.368c-2.272 0-3.792-1.632-3.792-4.064 0-2.416 1.504-4.08 3.712-4.08 2.096 0 3.52 1.488 3.52 3.68v.544h-6.16c.08 1.888 1.072 2.976 2.736 2.976 1.264 0 2.08-.544 2.368-1.568h1.056c-.416 1.632-1.616 2.512-3.44 2.512m-.08-7.2c-1.456 0-2.416.96-2.608 2.48h5.024c0-1.488-.96-2.48-2.416-2.48m9.333-.832v.992h-.608c-1.424 0-2.336.96-2.336 2.432V25h-1.104v-7.744h1.04l.08 1.2c.304-.832 1.12-1.376 2.208-1.376.24 0 .448.016.72.08M148.04 25h-1.088v-6.816H145.4v-.928h1.552v-2.448h1.088v2.448h1.552v.928h-1.552zm2.333-2.176h1.056c0 .896.672 1.456 1.76 1.456 1.2 0 1.904-.512 1.904-1.344 0-.64-.32-1.008-1.232-1.232l-1.328-.336c-1.344-.336-2-1.04-2-2.096 0-1.36 1.136-2.224 2.8-2.224 1.632 0 2.688.896 2.736 2.336h-1.072c-.032-.896-.656-1.424-1.696-1.424-1.088 0-1.696.464-1.696 1.296 0 .592.416 1.008 1.264 1.216l1.328.336c1.344.336 1.952.96 1.952 2.08 0 1.392-1.184 2.304-2.944 2.304-1.744 0-2.832-.928-2.832-2.368"/></svg>