<svg xmlns="http://www.w3.org/2000/svg" width="109" height="38" fill="none" viewBox="0 0 109 38"><rect width="106" height="37" x="1.612" y="1" fill="#21262b" rx="8"/><rect width="105" height="36" x="1.112" y=".5" fill="#f7f7f7" rx="7.5"/><rect width="105" height="36" x="1.112" y=".5" stroke="#21262b" rx="7.5"/><path fill="#21262b" d="M12.9 20.584h1.664l.528-2.624H13.14l.192-1.04h1.952l.672-3.376h1.088l-.656 3.376h2.8l.672-3.376h1.104l-.672 3.376h1.696l-.208 1.04H20.1l-.528 2.624h1.776l-.192 1.04H19.38L18.708 25h-1.104l.672-3.376H15.46L14.804 25H13.7l.672-3.376h-1.68zm2.768 0h2.8l.528-2.624H16.18zm7.677.512c0-2.336 1.344-4.048 3.584-4.048 1.296 0 2.368.576 2.928 1.776l.112-1.568h.96v11.12h-1.104v-4.864c-.544 1.12-1.584 1.68-2.896 1.68-2.288 0-3.584-1.76-3.584-4.096m1.12.032c0 1.776.976 3.072 2.656 3.072 1.696 0 2.688-1.296 2.688-3.072 0-1.792-.992-3.072-2.688-3.072-1.68 0-2.656 1.28-2.656 3.072m14.207-3.872h1.104V25h-.96l-.144-1.312c-.432.896-1.504 1.504-2.72 1.504-1.824 0-2.816-1.248-2.816-3.136V17.24h1.12v4.464c0 1.84.816 2.496 2.048 2.496 1.488 0 2.368-.992 2.368-2.832zm3.948-2.128a.82.82 0 0 1-.816-.816c0-.448.368-.832.816-.832s.832.384.832.832a.833.833 0 0 1-.832.816M42.076 25v-7.744h1.104V25zm6.654.192c-2.272 0-3.792-1.632-3.792-4.064 0-2.416 1.504-4.08 3.712-4.08 2.096 0 3.52 1.488 3.52 3.68v.544h-6.16c.08 1.888 1.072 2.976 2.736 2.976 1.264 0 2.08-.544 2.368-1.568h1.056c-.416 1.632-1.616 2.512-3.44 2.512m-.08-7.2c-1.456 0-2.416.96-2.608 2.48h5.024c0-1.488-.96-2.48-2.416-2.48M55.633 25h-1.088v-6.816h-1.552v-.928h1.552v-2.448h1.088v2.448h1.552v.928h-1.552zm12.74 0h-5.84v-.88l4.48-5.936h-4.48v-.928h5.84v.896l-4.497 5.92h4.496zm.987-3.872c0-2.368 1.664-4.08 3.936-4.08s3.936 1.712 3.936 4.08c0 2.352-1.664 4.064-3.936 4.064s-3.936-1.712-3.936-4.064m1.12-.016c0 1.824 1.152 3.088 2.816 3.088 1.648 0 2.816-1.264 2.816-3.088 0-1.792-1.168-3.072-2.816-3.072-1.664 0-2.816 1.28-2.816 3.072M80.102 25h-1.104v-7.744h.96l.16 1.344c.512-.992 1.536-1.552 2.656-1.552 2.128 0 3.008 1.264 3.008 3.216V25h-1.104v-4.496c0-1.808-.816-2.448-2.096-2.448-1.584 0-2.48 1.152-2.48 2.896zm11.128.192c-2.272 0-3.792-1.632-3.792-4.064 0-2.416 1.504-4.08 3.712-4.08 2.096 0 3.52 1.488 3.52 3.68v.544h-6.16c.08 1.888 1.072 2.976 2.736 2.976 1.264 0 2.08-.544 2.368-1.568h1.056c-.416 1.632-1.616 2.512-3.44 2.512m-.08-7.2c-1.456 0-2.416.96-2.608 2.48h5.024c0-1.488-.96-2.48-2.416-2.48"/></svg>