<svg xmlns="http://www.w3.org/2000/svg" width="89" height="38" fill="none" viewBox="0 0 89 38"><rect width="87" height="37" x="1.612" y="1" fill="#21262b" rx="8"/><rect width="86" height="36" x="1.112" y=".5" fill="#f7f7f7" rx="7.5"/><rect width="86" height="36" x="1.112" y=".5" stroke="#21262b" rx="7.5"/><path fill="#21262b" d="M13.658 20.584h1.664l.528-2.624h-1.952l.191-1.04h1.952l.672-3.376h1.088l-.655 3.376h2.8l.671-3.376h1.104l-.672 3.376h1.697l-.208 1.04h-1.68l-.529 2.624h1.776l-.192 1.04h-1.776L19.466 25h-1.104l.672-3.376h-2.815L15.562 25h-1.104l.672-3.376h-1.68zm2.768 0h2.8l.527-2.624h-2.815zM25.75 25h-1.104v-7.744h.96l.128 1.104c.384-.816 1.248-1.312 2.336-1.312 1.216 0 2.128.64 2.496 1.648.352-1.008 1.296-1.648 2.544-1.648 1.68 0 2.784 1.088 2.784 2.88V25h-1.072v-4.848c0-1.328-.736-2.112-1.92-2.112-1.296 0-2.064.976-2.064 2.176V25H29.75v-4.864c0-1.312-.752-2.08-1.92-2.08-1.296 0-2.08.96-2.08 2.144zm14.59.192c-1.649 0-2.625-.928-2.625-2.288 0-1.424 1.088-2.32 2.896-2.464l2.56-.208v-.256c0-1.52-.912-2-2.048-2-1.344 0-2.144.608-2.144 1.648h-1.008c0-1.568 1.28-2.576 3.184-2.576 1.792 0 3.104.896 3.104 2.944V25h-.928l-.144-1.36c-.48.976-1.536 1.552-2.848 1.552m.255-.896c1.632 0 2.576-1.136 2.576-2.816v-.416l-2.288.176c-1.456.128-2.048.768-2.048 1.632 0 .944.704 1.424 1.76 1.424M48.11 25h-1.088v-6.816H45.47v-.928h1.552v-2.448h1.088v2.448h1.552v.928H48.11zm2.367-3.856c0-2.432 1.488-4.096 3.744-4.096 1.792 0 3.104 1.04 3.408 2.64h-1.104c-.288-1.072-1.216-1.664-2.288-1.664-1.568 0-2.672 1.2-2.672 3.104 0 1.84 1.024 3.072 2.592 3.072 1.152 0 2.08-.64 2.384-1.632h1.12c-.368 1.584-1.744 2.624-3.504 2.624-2.192 0-3.68-1.616-3.68-4.048m9.96 3.84h-1.103V13.336h1.104V18.6c.496-.928 1.44-1.552 2.736-1.552 2.032 0 2.944 1.264 2.944 3.216V25h-1.104v-4.496c0-1.808-.848-2.448-2.048-2.448-1.664 0-2.528 1.232-2.528 2.72zm10.105.208c-1.648 0-2.624-.928-2.624-2.288 0-1.424 1.088-2.32 2.896-2.464l2.56-.208v-.256c0-1.52-.912-2-2.048-2-1.344 0-2.144.608-2.144 1.648h-1.008c0-1.568 1.28-2.576 3.184-2.576 1.792 0 3.104.896 3.104 2.944V25h-.928l-.144-1.36c-.48.976-1.536 1.552-2.848 1.552m.256-.896c1.632 0 2.576-1.136 2.576-2.816v-.416l-2.288.176c-1.456.128-2.048.768-2.048 1.632 0 .944.704 1.424 1.76 1.424"/></svg>