<svg xmlns="http://www.w3.org/2000/svg" width="117" height="38" fill="none" viewBox="0 0 117 38"><rect width="115" height="37" x="1.612" y="1" fill="#21262b" rx="8"/><rect width="114" height="36" x="1.112" y=".5" fill="#f7f7f7" rx="7.5"/><rect width="114" height="36" x="1.112" y=".5" stroke="#21262b" rx="7.5"/><path fill="#21262b" d="M13.658 20.584h1.664l.528-2.624h-1.952l.191-1.04h1.952l.672-3.376h1.088l-.655 3.376h2.8l.671-3.376h1.104l-.672 3.376h1.697l-.208 1.04h-1.68l-.529 2.624h1.776l-.192 1.04h-1.776L19.466 25h-1.104l.672-3.376h-2.815L15.562 25h-1.104l.672-3.376h-1.68zm2.768 0h2.8l.527-2.624h-2.815zm8.22 7.792v-11.12h.96l.112 1.568c.544-1.2 1.632-1.776 2.928-1.776 2.24 0 3.584 1.712 3.584 4.048s-1.296 4.096-3.584 4.096c-1.312 0-2.352-.56-2.896-1.68v4.864zm1.12-7.248c0 1.776.992 3.072 2.688 3.072 1.68 0 2.656-1.296 2.656-3.072 0-1.792-.976-3.072-2.656-3.072-1.696 0-2.688 1.28-2.688 3.072m11.472 4.064c-2.272 0-3.792-1.632-3.792-4.064 0-2.416 1.504-4.08 3.712-4.08 2.096 0 3.52 1.488 3.52 3.68v.544h-6.16c.08 1.888 1.072 2.976 2.736 2.976 1.264 0 2.08-.544 2.368-1.568h1.056c-.416 1.632-1.616 2.512-3.44 2.512m-.08-7.2c-1.456 0-2.416.96-2.608 2.48h5.024c0-1.488-.96-2.48-2.416-2.48M44.141 25h-1.088v-6.816h-1.552v-.928h1.552v-2.448h1.088v2.448h1.552v.928h-1.552zm2.55-3.712v-.992h4.64v.992zm5.638-4.032h1.184v-1.504c0-1.744.96-2.416 2.144-2.416.272 0 .592.016.848.064v.944h-.656c-.976 0-1.232.496-1.232 1.408v1.504h1.824v.928h-1.824V25h-1.104v-6.816H52.33zm9.662-.096v.992h-.608c-1.424 0-2.336.96-2.336 2.432V25h-1.104v-7.744h1.04l.08 1.2c.304-.832 1.12-1.376 2.208-1.376.24 0 .448.016.72.08m2.012-2.032a.82.82 0 0 1-.816-.816c0-.448.368-.832.816-.832s.832.384.832.832a.833.833 0 0 1-.832.816M63.459 25v-7.744h1.104V25zm6.654.192c-2.272 0-3.792-1.632-3.792-4.064 0-2.416 1.504-4.08 3.712-4.08 2.096 0 3.52 1.488 3.52 3.68v.544h-6.16c.08 1.888 1.072 2.976 2.736 2.976 1.264 0 2.08-.544 2.368-1.568h1.056c-.416 1.632-1.616 2.512-3.44 2.512m-.08-7.2c-1.456 0-2.416.96-2.608 2.48h5.024c0-1.488-.96-2.48-2.416-2.48M76.423 25h-1.105v-7.744h.96l.16 1.344c.512-.992 1.536-1.552 2.656-1.552 2.128 0 3.008 1.264 3.008 3.216V25h-1.104v-4.496c0-1.808-.816-2.448-2.096-2.448-1.584 0-2.48 1.152-2.48 2.896zm10.92.192c-2.256 0-3.584-1.728-3.584-4.048 0-2.336 1.328-4.096 3.632-4.096 1.28 0 2.304.56 2.848 1.68v-5.392h1.104V25h-.96l-.112-1.584c-.544 1.2-1.632 1.776-2.928 1.776m.192-1.008c1.696 0 2.688-1.28 2.688-3.072 0-1.776-.992-3.072-2.688-3.072-1.68 0-2.656 1.296-2.656 3.072 0 1.792.976 3.072 2.656 3.072m7.263.816h-1.104V13.336h1.104zm1.564 3.376v-.912h.848c.672 0 1.344-.048 1.728-1.088l.336-.912-3.136-8.208h1.168l2.496 6.752 2.448-6.752h1.136l-3.552 9.52c-.448 1.216-1.2 1.712-2.304 1.712-.464 0-.816-.032-1.168-.112"/></svg>