<svg width="101" height="40" viewBox="0 0 101 40" fill="none" xmlns="http://www.w3.org/2000/svg">
  <defs>
    <filter id="whiteShadow" x="-30%" y="-30%" width="160%" height="160%" color-interpolation-filters="sRGB">
      <feDropShadow dx="0" dy="0" stdDeviation="2" flood-color="#fff" flood-opacity="0.4"/>
    </filter>
  </defs>
  
  <g filter="url(#whiteShadow)">
    <path d="M43.49 35.8783C43.25 35.8783 42.97 35.7983 42.65 35.6383C42.33 35.4783 42.17 35.2623 42.17 34.9903C42.17 34.7503 42.258 34.4463 42.434 34.0783C42.61 33.7103 42.826 33.3183 43.082 32.9023C43.338 32.4863 43.602 32.0863 43.874 31.7023C44.146 31.3023 44.378 30.9663 44.57 30.6943C44.778 30.4063 44.906 30.2143 44.954 30.1183C45.178 29.8143 45.314 29.6223 45.362 29.5423C45.41 29.4623 45.442 29.3983 45.458 29.3503C45.33 29.4463 45.13 29.5983 44.858 29.8063C44.586 29.9983 44.314 30.1983 44.042 30.4063C43.77 30.6143 43.57 30.7743 43.442 30.8863C42.546 31.6703 41.794 32.4223 41.186 33.1423C40.594 33.8463 40.042 34.5983 39.53 35.3983C39.514 35.4143 39.474 35.4303 39.41 35.4463C39.346 35.4463 39.298 35.4463 39.266 35.4463C39.17 35.4463 39.026 35.4223 38.834 35.3743C38.658 35.3263 38.586 35.2223 38.618 35.0623C38.714 34.8223 38.842 34.5663 39.002 34.2943C39.162 34.0223 39.386 33.6543 39.674 33.1903C39.962 32.7103 40.338 32.0383 40.802 31.1743C40.946 30.9023 41.186 30.4543 41.522 29.8303C41.874 29.2063 42.298 28.4943 42.794 27.6943C43.306 26.8943 43.874 26.1023 44.498 25.3183C45.138 24.5183 45.826 23.8063 46.562 23.1823C47.298 22.5583 48.066 22.1103 48.866 21.8383C49.074 21.7583 49.258 21.7183 49.418 21.7183C49.722 21.7183 49.93 21.8223 50.042 22.0303C50.17 22.2223 50.338 22.3823 50.546 22.5103C50.674 22.5903 50.738 22.7183 50.738 22.8943C50.738 23.1503 50.522 23.5023 50.09 23.9503C49.674 24.3823 49.138 24.8623 48.482 25.3903C47.826 25.9023 47.138 26.4143 46.418 26.9263C45.698 27.4383 45.018 27.9103 44.378 28.3423C43.754 28.7743 43.274 29.1103 42.938 29.3503C42.874 29.4783 42.746 29.6863 42.554 29.9743C42.378 30.2463 42.186 30.5423 41.978 30.8623C41.77 31.1823 41.578 31.4783 41.402 31.7503C41.226 32.0223 41.114 32.2143 41.066 32.3263C41.514 31.9103 41.986 31.4703 42.482 31.0063C42.994 30.5423 43.49 30.0943 43.97 29.6623C44.466 29.2303 44.898 28.8623 45.266 28.5583C45.346 28.4943 45.442 28.4543 45.554 28.4383C45.682 28.4223 45.786 28.4143 45.866 28.4143C46.09 28.4143 46.354 28.5103 46.658 28.7023C46.962 28.8943 47.114 29.1263 47.114 29.3983C47.114 29.5743 47.018 29.7503 46.826 29.9263C46.346 30.3583 45.858 30.8623 45.362 31.4383C44.866 31.9983 44.418 32.5903 44.018 33.2143C43.906 33.4063 43.746 33.6863 43.538 34.0543C43.346 34.4223 43.25 34.7183 43.25 34.9423C43.25 35.1023 43.298 35.1823 43.394 35.1823C43.586 35.1823 43.85 35.0783 44.186 34.8703C44.538 34.6623 44.914 34.3983 45.314 34.0783C45.73 33.7423 46.138 33.3983 46.538 33.0463C46.954 32.6943 47.322 32.3663 47.642 32.0623C47.962 31.7583 48.194 31.5263 48.338 31.3663C48.434 31.2703 48.514 31.2223 48.578 31.2223C48.674 31.2223 48.722 31.2703 48.722 31.3663C48.722 31.4143 48.69 31.4863 48.626 31.5823C48.418 31.8543 48.114 32.1983 47.714 32.6143C47.314 33.0143 46.874 33.4303 46.394 33.8623C45.914 34.2783 45.45 34.6623 45.002 35.0143C44.57 35.3503 44.21 35.6063 43.922 35.7823C43.81 35.8463 43.666 35.8783 43.49 35.8783ZM43.442 28.4143C43.57 28.3183 43.786 28.1663 44.09 27.9583C44.41 27.7343 44.762 27.4863 45.146 27.2143C45.546 26.9263 45.938 26.6463 46.322 26.3743C46.706 26.0863 47.026 25.8303 47.282 25.6063C47.794 25.1583 48.218 24.7903 48.554 24.5023C48.906 24.2143 49.21 23.8783 49.466 23.4943C49.53 23.4143 49.57 23.3423 49.586 23.2783C49.602 23.2143 49.61 23.1583 49.61 23.1103C49.61 23.0143 49.562 22.9423 49.466 22.8943C49.386 22.8463 49.282 22.8223 49.154 22.8223C48.914 22.8223 48.602 22.9503 48.218 23.2063C47.834 23.4623 47.418 23.8063 46.97 24.2383C46.522 24.6543 46.074 25.1103 45.626 25.6063C45.178 26.1023 44.762 26.5983 44.378 27.0943C43.994 27.5743 43.682 28.0143 43.442 28.4143ZM53.0148 35.7823C52.6948 35.7823 52.3588 35.6463 52.0068 35.3743C51.6548 35.1023 51.4788 34.7903 51.4788 34.4383C51.4788 34.1183 51.5588 33.7423 51.7188 33.3103C51.8788 32.8783 52.0628 32.4863 52.2708 32.1343C51.7748 32.6623 51.2708 33.1903 50.7588 33.7183C50.2628 34.2463 49.7748 34.7823 49.2948 35.3263C49.1348 35.5183 48.9428 35.6143 48.7188 35.6143C48.4148 35.6143 48.1268 35.4543 47.8548 35.1343C47.5988 34.8143 47.4708 34.5103 47.4708 34.2223C47.4708 34.1423 47.4788 34.0783 47.4948 34.0303C47.6068 33.7263 47.7348 33.4303 47.8788 33.1423C48.0388 32.8383 48.1988 32.5503 48.3588 32.2783C48.5348 31.9743 48.7188 31.6863 48.9108 31.4143C49.1188 31.1263 49.3268 30.8383 49.5348 30.5503C49.6148 30.4543 49.6868 30.3583 49.7508 30.2623C49.8308 30.1503 49.9028 30.0383 49.9668 29.9263C50.0148 29.8463 50.0388 29.7503 50.0388 29.6383C50.0388 29.5263 50.0308 29.4303 50.0148 29.3503C50.1748 29.1423 50.3908 28.9423 50.6628 28.7503C50.9348 28.5423 51.1988 28.4383 51.4548 28.4383C51.5188 28.4383 51.6228 28.4623 51.7668 28.5103C51.9268 28.5423 52.0708 28.5903 52.1988 28.6543C52.3428 28.7023 52.4148 28.7583 52.4148 28.8223C52.4148 28.8863 52.3828 28.9503 52.3188 29.0143C52.2388 29.0943 52.1508 29.1743 52.0548 29.2543C51.9588 29.3343 51.8708 29.4223 51.7908 29.5183C51.4228 29.8863 51.0708 30.2783 50.7348 30.6943C50.3988 31.0943 50.0788 31.5023 49.7748 31.9183C49.6788 32.0623 49.5268 32.2783 49.3188 32.5663C49.1268 32.8383 48.9508 33.1183 48.7908 33.4063C48.6308 33.6943 48.5508 33.9263 48.5508 34.1023C48.5508 34.2623 48.6228 34.3423 48.7668 34.3423C48.9268 34.3423 49.1588 34.2383 49.4628 34.0303C49.7828 33.8063 50.1268 33.5263 50.4948 33.1903C50.8628 32.8383 51.2228 32.4783 51.5748 32.1103C51.9428 31.7423 52.2628 31.4063 52.5348 31.1023C52.8228 30.7983 53.0228 30.5743 53.1348 30.4303C53.4708 30.0303 53.7988 29.5823 54.1188 29.0863C54.2468 28.8943 54.3988 28.7263 54.5748 28.5823C54.7668 28.4223 54.9748 28.3423 55.1988 28.3423C55.3268 28.3423 55.4868 28.3583 55.6788 28.3903C55.8868 28.4063 55.9908 28.5023 55.9908 28.6783C55.9908 28.7423 55.9668 28.8063 55.9188 28.8703C55.8868 28.9343 55.8468 28.9903 55.7988 29.0383C55.2708 29.5823 54.7668 30.1583 54.2868 30.7663C53.8228 31.3583 53.4308 32.0063 53.1108 32.7103C52.9988 32.9503 52.8868 33.2703 52.7748 33.6703C52.6628 34.0543 52.6068 34.3823 52.6068 34.6543C52.6068 34.9263 52.7108 35.0623 52.9188 35.0623C53.0628 35.0623 53.2068 35.0143 53.3508 34.9183C53.5268 34.8223 53.7668 34.6303 54.0708 34.3423C54.3748 34.0383 54.6948 33.7023 55.0308 33.3343C55.3828 32.9503 55.7108 32.5903 56.0148 32.2543C56.3188 31.9023 56.5508 31.6303 56.7108 31.4383C56.7428 31.4063 56.7748 31.3823 56.8068 31.3663C56.8388 31.3343 56.8708 31.3183 56.9028 31.3183C57.0148 31.3183 57.0708 31.3823 57.0708 31.5103C57.0708 31.5743 57.0548 31.6223 57.0228 31.6543C56.9908 31.6863 56.9588 31.7263 56.9268 31.7743C56.4308 32.3503 55.9348 32.9343 55.4388 33.5263C54.9588 34.1183 54.4708 34.7023 53.9748 35.2783C53.8628 35.4223 53.7268 35.5423 53.5668 35.6383C53.4068 35.7343 53.2228 35.7823 53.0148 35.7823ZM57.0837 36.1903C56.6517 36.1903 56.2997 36.1263 56.0277 35.9983C55.7717 35.8703 55.6437 35.7023 55.6437 35.4943C55.6437 35.1263 55.7557 34.7423 55.9797 34.3423C56.2197 33.9423 56.3957 33.6303 56.5077 33.4063C56.8917 32.6863 57.3637 31.8783 57.9237 30.9823C58.4997 30.0703 59.1237 29.1503 59.7957 28.2223C60.4837 27.2783 61.2037 26.3903 61.9557 25.5583C62.7237 24.7103 63.4997 23.9903 64.2837 23.3983C64.4917 23.2223 64.6917 23.0703 64.8837 22.9423C65.0917 22.8143 65.2277 22.7503 65.2917 22.7503C65.4357 22.7663 65.5637 22.8543 65.6757 23.0143C65.8037 23.1743 65.8677 23.3343 65.8677 23.4943C65.8677 23.6223 65.7557 23.7743 65.5317 23.9503C65.4357 24.0143 65.2917 24.1183 65.0997 24.2623C64.9077 24.4063 64.7237 24.5583 64.5477 24.7183C63.7957 25.3583 63.0277 26.0863 62.2437 26.9023C61.4597 27.7023 60.6997 28.5663 59.9637 29.4943C59.2437 30.4223 58.6037 31.3823 58.0437 32.3743C58.2997 32.1343 58.6117 31.8383 58.9797 31.4863C59.3637 31.1343 59.7717 30.7663 60.2037 30.3823C60.6357 29.9983 61.0517 29.6463 61.4517 29.3263C61.8517 28.9903 62.2037 28.7183 62.5077 28.5103C62.8117 28.3023 63.0197 28.1983 63.1317 28.1983C63.4037 28.1983 63.6517 28.3503 63.8757 28.6543C64.0037 28.8463 64.0757 29.0143 64.0917 29.1583C64.1237 29.3023 64.1397 29.4463 64.1397 29.5903C64.1397 30.1183 63.9397 30.7343 63.5397 31.4383C63.1397 32.1263 62.6757 32.7823 62.1477 33.4063C61.7797 33.8543 61.3077 34.2943 60.7317 34.7263C60.1717 35.1423 59.5717 35.4863 58.9317 35.7583C58.2917 36.0463 57.6757 36.1903 57.0837 36.1903ZM57.7317 35.4703C58.2277 35.4703 58.7157 35.3023 59.1957 34.9663C59.6917 34.6143 60.1477 34.2063 60.5637 33.7423C60.9797 33.2783 61.3157 32.8623 61.5717 32.4943C61.7637 32.2383 61.9477 31.9423 62.1237 31.6063C62.3157 31.2543 62.4677 30.9183 62.5797 30.5983C62.7077 30.2623 62.7717 29.9983 62.7717 29.8063C62.7717 29.5983 62.6917 29.4943 62.5317 29.4943C62.2917 29.4943 61.9717 29.6383 61.5717 29.9263C61.1717 30.2143 60.7557 30.5583 60.3237 30.9583C59.8917 31.3583 59.4917 31.7423 59.1237 32.1103C58.7557 32.4783 58.4917 32.7423 58.3317 32.9023C57.2757 33.9263 56.7477 34.6063 56.7477 34.9423C56.7477 35.2943 57.0757 35.4703 57.7317 35.4703Z" fill="#21262B"/>
  </g>
  <g filter="url(#whiteShadow)">
    <path d="M8.0905 23.1693L6.29901 9.28435L8.91731 8.94653L9.62878 14.4608L9.98582 14.4148L13.777 8.31951L17.1292 7.887L12.2202 15.4776L19.1191 21.7463L15.6677 22.1916L10.339 17.1521L9.98196 17.1981L10.7088 22.8314L8.0905 23.1693ZM21.795 25.5266L21.5969 23.3355L26.9749 22.8492C27.3467 22.8156 27.5146 22.5996 27.4786 22.2012L27.2534 19.7113L26.8949 19.7438C26.8091 19.9791 26.6635 20.2199 26.4582 20.466C26.2528 20.7122 25.9642 20.9257 25.5923 21.1066C25.2205 21.2875 24.7357 21.405 24.1382 21.459C23.368 21.5287 22.6751 21.4173 22.0596 21.1249C21.4562 20.818 20.9669 20.3669 20.5918 19.7716C20.2166 19.1763 19.9924 18.4736 19.9192 17.6636L19.386 11.7676L21.8958 11.5407L22.4109 17.2374C22.4782 17.9811 22.7079 18.5226 23.1 18.862C23.5055 19.2002 24.0468 19.3386 24.7241 19.2774C25.4943 19.2077 26.069 18.9014 26.4483 18.3584C26.8264 17.802 26.974 17.0658 26.8912 16.1495L26.4372 11.13L28.947 10.903L29.9989 22.5355C30.0602 23.2128 29.9096 23.7686 29.5473 24.203C29.1861 24.6507 28.6736 24.9045 28.0096 24.9646L21.795 25.5266ZM32.6356 20.5708L32.0298 10.6693L34.5451 10.5154L35.1509 20.4169L32.6356 20.5708ZM33.2166 9.43453C32.7641 9.46221 32.3692 9.33943 32.0319 9.06619C31.7079 8.79213 31.5312 8.41555 31.5019 7.93645C31.4726 7.45734 31.602 7.06203 31.8902 6.75052C32.1917 6.43819 32.5687 6.26819 33.0212 6.2405C33.487 6.212 33.8819 6.33478 34.2059 6.60884C34.5299 6.88289 34.7065 7.25948 34.7358 7.73858C34.7652 8.21768 34.6357 8.61299 34.3475 8.92451C34.0594 9.23602 33.6824 9.40603 33.2166 9.43453ZM40.0188 20.2158L36.5298 10.4067L39.2083 10.3173L41.7764 18.3161L42.1362 18.3041L44.1655 10.1519L46.844 10.0625L44.0166 20.0824L40.0188 20.2158ZM60.7945 8.23941C60.2214 8.22167 59.7049 8.31906 59.2447 8.53159C58.7979 8.74453 58.4147 9.05949 58.0949 9.47646C57.7756 9.8801 57.5267 10.3793 57.3482 10.9741C57.1831 11.5692 57.0889 12.24 57.0658 12.9863C57.0345 13.9991 57.1276 14.8691 57.3452 15.5962C57.5765 16.3104 57.953 16.8623 58.4745 17.2519C58.996 17.6416 59.6699 17.8492 60.4962 17.8748C61.0826 17.893 61.6643 17.8443 62.2415 17.7287C62.832 17.6136 63.4708 17.4466 64.1579 17.2278L64.0793 19.7666C63.4451 20.0004 62.8197 20.1678 62.2029 20.2688C61.5861 20.3697 60.898 20.4084 60.1383 20.3849C58.6724 20.3395 57.4689 20.0021 56.5279 19.3727C55.6007 18.7304 54.9274 17.8558 54.5081 16.7489C54.0893 15.6288 53.9025 14.3357 53.9479 12.8697C53.9814 11.7903 54.1585 10.8086 54.4793 9.92478C54.8006 9.02763 55.2512 8.2612 55.8311 7.62551C56.4244 6.99024 57.1397 6.50548 57.9772 6.17123C58.8279 5.8374 59.793 5.68719 60.8725 5.72062C61.5788 5.74249 62.2823 5.85765 62.9828 6.06609C63.6971 6.26163 64.376 6.52276 65.0195 6.8495L63.9639 9.27799C63.4386 9.00828 62.9057 8.77167 62.3651 8.56817C61.8378 8.36509 61.3143 8.2555 60.7945 8.23941ZM69.7426 20.9523C69.0378 20.9005 68.415 20.7344 67.8741 20.4539C67.3342 20.1602 66.9151 19.7684 66.6169 19.2786C66.333 18.7764 66.216 18.1862 66.2658 17.508C66.3157 16.8299 66.5168 16.2765 66.8692 15.8478C67.2359 15.4069 67.7134 15.0944 68.3019 14.9104C68.9045 14.7141 69.5782 14.6433 70.3229 14.6981L73.0355 14.8976L73.0766 14.3391C73.1109 13.8737 72.9925 13.4839 72.7214 13.1699C72.4514 12.8425 71.9972 12.6554 71.3589 12.6084C70.734 12.5625 70.2578 12.6745 69.9304 12.9445C69.6041 13.2013 69.3777 13.5523 69.2514 13.9976L66.9948 13.0495C67.1916 12.5559 67.4779 12.1158 67.854 11.729C68.2443 11.3299 68.7413 11.0255 69.345 10.8159C69.9629 10.5939 70.6974 10.5143 71.5485 10.5768C72.8516 10.6727 73.8582 11.0743 74.5682 11.7816C75.2783 12.4889 75.5878 13.4609 75.4968 14.6975L75.2255 18.3876C75.1961 18.7865 75.3676 18.9997 75.7399 19.027L76.5378 19.0857L76.3852 21.1601L74.7098 21.0369C74.2178 21.0007 73.821 20.8512 73.5194 20.5884C73.2179 20.3256 73.0818 19.9947 73.1112 19.5958L73.1126 19.5758L72.7336 19.5479C72.6687 19.7036 72.5334 19.9076 72.3277 20.1598C72.1229 20.3988 71.8138 20.6033 71.4002 20.7734C70.9866 20.9436 70.434 21.0032 69.7426 20.9523ZM70.331 18.9501C71.0358 19.0019 71.6218 18.8512 72.0889 18.4978C72.5704 18.1321 72.8351 17.6235 72.883 16.972L72.8977 16.7725L70.3645 16.5862C69.8991 16.552 69.5261 16.6248 69.2455 16.8047C68.9648 16.9846 68.8113 17.2541 68.7849 17.6131C68.7585 17.9721 68.8766 18.2749 69.1392 18.5215C69.4019 18.7681 69.7991 18.911 70.331 18.9501ZM79.1298 21.4444L79.9161 13.6439L77.4088 13.3912L77.6175 11.3217L80.1247 11.5744L80.3093 9.74371C80.3775 9.06714 80.6306 8.54992 81.0687 8.19206C81.5214 7.82226 82.0728 7.67013 82.7229 7.73566L85.3097 7.99643L85.1011 10.0659L83.3898 9.89343C83.0184 9.85599 82.8126 10.0363 82.7725 10.4342L82.632 11.8272L85.2189 12.0879L85.0103 14.1575L82.4234 13.8967L81.6371 21.6972L79.1298 21.4444ZM90.2703 23.052C89.2926 22.9195 88.4549 22.5975 87.7572 22.0859C87.0746 21.5629 86.5729 20.8961 86.2521 20.0857C85.9463 19.2639 85.8632 18.3377 86.0028 17.3071L86.035 17.0693C86.1746 16.0387 86.5002 15.1746 87.0118 14.477C87.5252 13.7661 88.1796 13.256 88.975 12.9466C89.7722 12.6241 90.6597 12.529 91.6374 12.6614C92.6019 12.7921 93.4114 13.1237 94.0658 13.6564C94.722 14.1759 95.1964 14.8456 95.489 15.6656C95.7834 16.4724 95.8625 17.3779 95.7265 18.3821L95.6111 19.2343L88.4564 18.2652C88.3916 18.9426 88.5683 19.5249 88.9867 20.0122C89.4051 20.4994 89.9578 20.7895 90.6449 20.8826C91.3451 20.9775 91.881 20.8953 92.2525 20.6362C92.624 20.377 92.9207 20.0741 93.1425 19.7274L95.0389 21.0742C94.8074 21.3926 94.4856 21.7325 94.0733 22.0938C93.6761 22.4436 93.1671 22.7245 92.5464 22.9364C91.9275 23.1352 91.1688 23.1737 90.2703 23.052ZM88.7286 16.4049L93.3266 17.0277C93.3507 16.4524 93.1812 15.9652 92.8182 15.5662C92.4683 15.169 91.9697 14.9265 91.3223 14.8388C90.6484 14.7476 90.09 14.8468 89.6471 15.1367C89.2042 15.4265 88.898 15.8492 88.7286 16.4049ZM90.2439 11.625L92.1078 8.89045L94.9221 9.27167L92.424 11.9203L90.2439 11.625Z" fill="#21262B"/>
  </g>
</svg>