<svg width="105" height="42" viewBox="0 0 105 42" fill="none" xmlns="http://www.w3.org/2000/svg">
<path d="M2.112 32V9.6H6.336V18.496H6.912L14.176 9.6H19.584L10.24 20.64L19.904 32H14.336L6.912 22.912H6.336V32H2.112ZM27.9033 32V24.288L20.2873 9.6H24.9913L29.7273 19.2H30.3033L35.0393 9.6H39.7433L32.1273 24.288V32H27.9033ZM42.112 32V9.6H46.336V32H42.112ZM54.7095 32L49.0135 9.6H53.3655L58.1015 29.28H58.5495L63.2855 9.6H67.6375L61.9415 32H54.7095Z" fill="white"/>
<path d="M3.112 32V9.6H7.336V18.496H7.912L15.176 9.6H20.584L11.24 20.64L20.904 32H15.336L7.912 22.912H7.336V32H3.112ZM28.9033 32V24.288L21.2873 9.6H25.9913L30.7273 19.2H31.3033L36.0393 9.6H40.7433L33.1273 24.288V32H28.9033ZM43.112 32V9.6H47.336V32H43.112ZM55.7095 32L50.0135 9.6H54.3655L59.1015 29.28H59.5495L64.2855 9.6H68.6375L62.9415 32H55.7095Z" fill="#21262B"/>
<path d="M78.242 19.696C77.57 19.696 76.9587 19.556 76.408 19.276C75.8667 18.996 75.4373 18.59 75.12 18.058C74.8027 17.526 74.644 16.882 74.644 16.126V15.93C74.644 15.174 74.8027 14.53 75.12 13.998C75.4373 13.466 75.8667 13.06 76.408 12.78C76.9587 12.5 77.57 12.36 78.242 12.36C78.9047 12.36 79.474 12.4767 79.95 12.71C80.426 12.9433 80.8087 13.2653 81.098 13.676C81.3967 14.0773 81.5927 14.5347 81.686 15.048L79.978 15.412C79.9407 15.132 79.8567 14.88 79.726 14.656C79.5953 14.432 79.4087 14.2547 79.166 14.124C78.9327 13.9933 78.6387 13.928 78.284 13.928C77.9293 13.928 77.6073 14.0073 77.318 14.166C77.038 14.3153 76.814 14.544 76.646 14.852C76.4873 15.1507 76.408 15.5193 76.408 15.958V16.098C76.408 16.5367 76.4873 16.91 76.646 17.218C76.814 17.5167 77.038 17.7453 77.318 17.904C77.6073 18.0533 77.9293 18.128 78.284 18.128C78.816 18.128 79.2173 17.9927 79.488 17.722C79.768 17.442 79.9453 17.078 80.02 16.63L81.728 17.036C81.6067 17.5307 81.3967 17.9833 81.098 18.394C80.8087 18.7953 80.426 19.1127 79.95 19.346C79.474 19.5793 78.9047 19.696 78.242 19.696ZM85.3391 19.696C84.8445 19.696 84.4011 19.612 84.0091 19.444C83.6171 19.2667 83.3045 19.0147 83.0711 18.688C82.8471 18.352 82.7351 17.946 82.7351 17.47C82.7351 16.994 82.8471 16.5973 83.0711 16.28C83.3045 15.9533 83.6218 15.7107 84.0231 15.552C84.4338 15.384 84.9005 15.3 85.4231 15.3H87.3271V14.908C87.3271 14.5813 87.2245 14.3153 87.0191 14.11C86.8138 13.8953 86.4871 13.788 86.0391 13.788C85.6005 13.788 85.2738 13.8907 85.0591 14.096C84.8445 14.292 84.7045 14.5487 84.6391 14.866L83.0151 14.32C83.1271 13.9653 83.3045 13.6433 83.5471 13.354C83.7991 13.0553 84.1305 12.8173 84.5411 12.64C84.9611 12.4533 85.4698 12.36 86.0671 12.36C86.9818 12.36 87.7051 12.5887 88.2371 13.046C88.7691 13.5033 89.0351 14.166 89.0351 15.034V17.624C89.0351 17.904 89.1658 18.044 89.4271 18.044H89.9871V19.5H88.8111C88.4658 19.5 88.1811 19.416 87.9571 19.248C87.7331 19.08 87.6211 18.856 87.6211 18.576V18.562H87.3551C87.3178 18.674 87.2338 18.8233 87.1031 19.01C86.9725 19.1873 86.7671 19.346 86.4871 19.486C86.2071 19.626 85.8245 19.696 85.3391 19.696ZM85.6471 18.268C86.1418 18.268 86.5431 18.1327 86.8511 17.862C87.1685 17.582 87.3271 17.2133 87.3271 16.756V16.616H85.5491C85.2225 16.616 84.9658 16.686 84.7791 16.826C84.5925 16.966 84.4991 17.162 84.4991 17.414C84.4991 17.666 84.5971 17.8713 84.7931 18.03C84.9891 18.1887 85.2738 18.268 85.6471 18.268ZM91.919 19.5V14.012H90.155V12.556H91.919V11.268C91.919 10.792 92.059 10.414 92.339 10.134C92.6283 9.84467 93.0017 9.7 93.459 9.7H95.279V11.156H94.075C93.8137 11.156 93.683 11.296 93.683 11.576V12.556H95.503V14.012H93.683V19.5H91.919ZM99.8003 19.696C99.1096 19.696 98.4983 19.5513 97.9663 19.262C97.4436 18.9633 97.0329 18.548 96.7343 18.016C96.4449 17.4747 96.3003 16.84 96.3003 16.112V15.944C96.3003 15.216 96.4449 14.586 96.7343 14.054C97.0236 13.5127 97.4296 13.0973 97.9523 12.808C98.4749 12.5093 99.0816 12.36 99.7722 12.36C100.454 12.36 101.046 12.514 101.55 12.822C102.054 13.1207 102.446 13.5407 102.726 14.082C103.006 14.614 103.146 15.2347 103.146 15.944V16.546H98.0923C98.1109 17.022 98.2883 17.4093 98.6243 17.708C98.9603 18.0067 99.3709 18.156 99.8563 18.156C100.351 18.156 100.715 18.0487 100.948 17.834C101.182 17.6193 101.359 17.3813 101.48 17.12L102.922 17.876C102.792 18.1187 102.6 18.3847 102.348 18.674C102.106 18.954 101.779 19.1967 101.368 19.402C100.958 19.598 100.435 19.696 99.8003 19.696ZM98.1063 15.23H101.354C101.317 14.8287 101.154 14.5067 100.864 14.264C100.584 14.0213 100.216 13.9 99.7583 13.9C99.2823 13.9 98.9043 14.0213 98.6243 14.264C98.3443 14.5067 98.1716 14.8287 98.1063 15.23ZM98.7083 11.772L99.7443 9.7H101.732L100.248 11.772H98.7083Z" fill="white"/>
<path d="M78.742 19.696C78.07 19.696 77.4587 19.556 76.908 19.276C76.3667 18.996 75.9373 18.59 75.62 18.058C75.3027 17.526 75.144 16.882 75.144 16.126V15.93C75.144 15.174 75.3027 14.53 75.62 13.998C75.9373 13.466 76.3667 13.06 76.908 12.78C77.4587 12.5 78.07 12.36 78.742 12.36C79.4047 12.36 79.974 12.4767 80.45 12.71C80.926 12.9433 81.3087 13.2653 81.598 13.676C81.8967 14.0773 82.0927 14.5347 82.186 15.048L80.478 15.412C80.4407 15.132 80.3567 14.88 80.226 14.656C80.0953 14.432 79.9087 14.2547 79.666 14.124C79.4327 13.9933 79.1387 13.928 78.784 13.928C78.4293 13.928 78.1073 14.0073 77.818 14.166C77.538 14.3153 77.314 14.544 77.146 14.852C76.9873 15.1507 76.908 15.5193 76.908 15.958V16.098C76.908 16.5367 76.9873 16.91 77.146 17.218C77.314 17.5167 77.538 17.7453 77.818 17.904C78.1073 18.0533 78.4293 18.128 78.784 18.128C79.316 18.128 79.7173 17.9927 79.988 17.722C80.268 17.442 80.4453 17.078 80.52 16.63L82.228 17.036C82.1067 17.5307 81.8967 17.9833 81.598 18.394C81.3087 18.7953 80.926 19.1127 80.45 19.346C79.974 19.5793 79.4047 19.696 78.742 19.696ZM85.8391 19.696C85.3445 19.696 84.9011 19.612 84.5091 19.444C84.1171 19.2667 83.8045 19.0147 83.5711 18.688C83.3471 18.352 83.2351 17.946 83.2351 17.47C83.2351 16.994 83.3471 16.5973 83.5711 16.28C83.8045 15.9533 84.1218 15.7107 84.5231 15.552C84.9338 15.384 85.4005 15.3 85.9231 15.3H87.8271V14.908C87.8271 14.5813 87.7245 14.3153 87.5191 14.11C87.3138 13.8953 86.9871 13.788 86.5391 13.788C86.1005 13.788 85.7738 13.8907 85.5591 14.096C85.3445 14.292 85.2045 14.5487 85.1391 14.866L83.5151 14.32C83.6271 13.9653 83.8045 13.6433 84.0471 13.354C84.2991 13.0553 84.6305 12.8173 85.0411 12.64C85.4611 12.4533 85.9698 12.36 86.5671 12.36C87.4818 12.36 88.2051 12.5887 88.7371 13.046C89.2691 13.5033 89.5351 14.166 89.5351 15.034V17.624C89.5351 17.904 89.6658 18.044 89.9271 18.044H90.4871V19.5H89.3111C88.9658 19.5 88.6811 19.416 88.4571 19.248C88.2331 19.08 88.1211 18.856 88.1211 18.576V18.562H87.8551C87.8178 18.674 87.7338 18.8233 87.6031 19.01C87.4725 19.1873 87.2671 19.346 86.9871 19.486C86.7071 19.626 86.3245 19.696 85.8391 19.696ZM86.1471 18.268C86.6418 18.268 87.0431 18.1327 87.3511 17.862C87.6685 17.582 87.8271 17.2133 87.8271 16.756V16.616H86.0491C85.7225 16.616 85.4658 16.686 85.2791 16.826C85.0925 16.966 84.9991 17.162 84.9991 17.414C84.9991 17.666 85.0971 17.8713 85.2931 18.03C85.4891 18.1887 85.7738 18.268 86.1471 18.268ZM92.419 19.5V14.012H90.655V12.556H92.419V11.268C92.419 10.792 92.559 10.414 92.839 10.134C93.1283 9.84467 93.5017 9.7 93.959 9.7H95.779V11.156H94.575C94.3137 11.156 94.183 11.296 94.183 11.576V12.556H96.003V14.012H94.183V19.5H92.419ZM100.3 19.696C99.6096 19.696 98.9983 19.5513 98.4663 19.262C97.9436 18.9633 97.5329 18.548 97.2343 18.016C96.9449 17.4747 96.8003 16.84 96.8003 16.112V15.944C96.8003 15.216 96.9449 14.586 97.2343 14.054C97.5236 13.5127 97.9296 13.0973 98.4523 12.808C98.9749 12.5093 99.5816 12.36 100.272 12.36C100.954 12.36 101.546 12.514 102.05 12.822C102.554 13.1207 102.946 13.5407 103.226 14.082C103.506 14.614 103.646 15.2347 103.646 15.944V16.546H98.5923C98.6109 17.022 98.7883 17.4093 99.1243 17.708C99.4603 18.0067 99.8709 18.156 100.356 18.156C100.851 18.156 101.215 18.0487 101.448 17.834C101.682 17.6193 101.859 17.3813 101.98 17.12L103.422 17.876C103.292 18.1187 103.1 18.3847 102.848 18.674C102.606 18.954 102.279 19.1967 101.868 19.402C101.458 19.598 100.935 19.696 100.3 19.696ZM98.6063 15.23H101.854C101.817 14.8287 101.654 14.5067 101.364 14.264C101.084 14.0213 100.716 13.9 100.258 13.9C99.7823 13.9 99.4043 14.0213 99.1243 14.264C98.8443 14.5067 98.6716 14.8287 98.6063 15.23ZM99.2083 11.772L100.244 9.7H102.232L100.748 11.772H99.2083Z" fill="#21262B"/>
<path d="M74.98 32.5V22.7H76.744V26.41H76.996C77.0707 26.2607 77.1873 26.1113 77.346 25.962C77.5047 25.8127 77.7147 25.6913 77.976 25.598C78.2467 25.4953 78.5873 25.444 78.998 25.444C79.5393 25.444 80.0107 25.57 80.412 25.822C80.8227 26.0647 81.14 26.4053 81.364 26.844C81.588 27.2733 81.7 27.7773 81.7 28.356V32.5H79.936V28.496C79.936 27.9733 79.8053 27.5813 79.544 27.32C79.292 27.0587 78.928 26.928 78.452 26.928C77.9107 26.928 77.4907 27.11 77.192 27.474C76.8933 27.8287 76.744 28.328 76.744 28.972V32.5H74.98ZM86.1436 32.612C85.6022 32.612 85.1262 32.4907 84.7156 32.248C84.3142 31.996 84.0016 31.6507 83.7776 31.212C83.5536 30.7733 83.4416 30.2693 83.4416 29.7V25.556H85.2056V29.56C85.2056 30.0827 85.3316 30.4747 85.5836 30.736C85.8449 30.9973 86.2136 31.128 86.6896 31.128C87.2309 31.128 87.6509 30.9507 87.9496 30.596C88.2482 30.232 88.3976 29.728 88.3976 29.084V25.556H90.1616V32.5H88.4256V31.59H88.1736C88.0616 31.8233 87.8516 32.052 87.5436 32.276C87.2356 32.5 86.7689 32.612 86.1436 32.612ZM96.2965 32.696C95.6712 32.696 95.1905 32.5887 94.8545 32.374C94.5185 32.1593 94.2712 31.9213 94.1125 31.66H93.8605V32.5H92.1245V22.7H93.8885V26.354H94.1405C94.2432 26.186 94.3785 26.0273 94.5465 25.878C94.7239 25.7287 94.9525 25.6073 95.2325 25.514C95.5219 25.4113 95.8765 25.36 96.2965 25.36C96.8565 25.36 97.3745 25.5 97.8505 25.78C98.3265 26.0507 98.7092 26.452 98.9985 26.984C99.2879 27.516 99.4325 28.16 99.4325 28.916V29.14C99.4325 29.896 99.2879 30.54 98.9985 31.072C98.7092 31.604 98.3265 32.01 97.8505 32.29C97.3745 32.5607 96.8565 32.696 96.2965 32.696ZM95.7645 31.156C96.3059 31.156 96.7585 30.9833 97.1225 30.638C97.4865 30.2833 97.6685 29.77 97.6685 29.098V28.958C97.6685 28.286 97.4865 27.7773 97.1225 27.432C96.7679 27.0773 96.3152 26.9 95.7645 26.9C95.2232 26.9 94.7705 27.0773 94.4065 27.432C94.0425 27.7773 93.8605 28.286 93.8605 28.958V29.098C93.8605 29.77 94.0425 30.2833 94.4065 30.638C94.7705 30.9833 95.2232 31.156 95.7645 31.156Z" fill="white"/>
<path d="M75.48 32.5V22.7H77.244V26.41H77.496C77.5707 26.2607 77.6873 26.1113 77.846 25.962C78.0047 25.8127 78.2147 25.6913 78.476 25.598C78.7467 25.4953 79.0873 25.444 79.498 25.444C80.0393 25.444 80.5107 25.57 80.912 25.822C81.3227 26.0647 81.64 26.4053 81.864 26.844C82.088 27.2733 82.2 27.7773 82.2 28.356V32.5H80.436V28.496C80.436 27.9733 80.3053 27.5813 80.044 27.32C79.792 27.0587 79.428 26.928 78.952 26.928C78.4107 26.928 77.9907 27.11 77.692 27.474C77.3933 27.8287 77.244 28.328 77.244 28.972V32.5H75.48ZM86.6436 32.612C86.1022 32.612 85.6262 32.4907 85.2156 32.248C84.8142 31.996 84.5016 31.6507 84.2776 31.212C84.0536 30.7733 83.9416 30.2693 83.9416 29.7V25.556H85.7056V29.56C85.7056 30.0827 85.8316 30.4747 86.0836 30.736C86.3449 30.9973 86.7136 31.128 87.1896 31.128C87.7309 31.128 88.1509 30.9507 88.4496 30.596C88.7482 30.232 88.8976 29.728 88.8976 29.084V25.556H90.6616V32.5H88.9256V31.59H88.6736C88.5616 31.8233 88.3516 32.052 88.0436 32.276C87.7356 32.5 87.2689 32.612 86.6436 32.612ZM96.7965 32.696C96.1712 32.696 95.6905 32.5887 95.3545 32.374C95.0185 32.1593 94.7712 31.9213 94.6125 31.66H94.3605V32.5H92.6245V22.7H94.3885V26.354H94.6405C94.7432 26.186 94.8785 26.0273 95.0465 25.878C95.2239 25.7287 95.4525 25.6073 95.7325 25.514C96.0219 25.4113 96.3765 25.36 96.7965 25.36C97.3565 25.36 97.8745 25.5 98.3505 25.78C98.8265 26.0507 99.2092 26.452 99.4985 26.984C99.7879 27.516 99.9325 28.16 99.9325 28.916V29.14C99.9325 29.896 99.7879 30.54 99.4985 31.072C99.2092 31.604 98.8265 32.01 98.3505 32.29C97.8745 32.5607 97.3565 32.696 96.7965 32.696ZM96.2645 31.156C96.8059 31.156 97.2585 30.9833 97.6225 30.638C97.9865 30.2833 98.1685 29.77 98.1685 29.098V28.958C98.1685 28.286 97.9865 27.7773 97.6225 27.432C97.2679 27.0773 96.8152 26.9 96.2645 26.9C95.7232 26.9 95.2705 27.0773 94.9065 27.432C94.5425 27.7773 94.3605 28.286 94.3605 28.958V29.098C94.3605 29.77 94.5425 30.2833 94.9065 30.638C95.2705 30.9833 95.7232 31.156 96.2645 31.156Z" fill="#21262B"/>
</svg>
